Fraunces-LightOpMax.ufo
<glyph name="exclam" format="2">
  <advance width="450"/>
  <unicode hex="0021"/>
  <outline>
    <contour>
      <point x="228.0" y="1406.0" type="curve" smooth="yes"/>
      <point x="190.0" y="1406.0"/>
      <point x="186.0" y="1392.0"/>
      <point x="186.0" y="1344.0" type="curve" smooth="yes"/>
      <point x="186.0" y="1346.0"/>
      <point x="184.0" y="1342.0"/>
      <point x="182.0" y="1348.0" type="curve" smooth="yes"/>
      <point x="228.0" y="320.0" type="line" smooth="yes"/>
      <point x="226.0" y="320.0"/>
      <point x="228.0" y="316.0"/>
      <point x="226.0" y="316.0" type="curve" smooth="yes"/>
      <point x="228.0" y="316.0"/>
      <point x="228.0" y="316.0"/>
      <point x="226.0" y="318.0" type="curve" smooth="yes"/>
      <point x="272.0" y="1374.0" type="line" smooth="yes"/>
      <point x="268.0" y="1364.0"/>
      <point x="268.0" y="1354.0"/>
      <point x="268.0" y="1348.0" type="curve" smooth="yes"/>
      <point x="268.0" y="1380.0"/>
      <point x="252.0" y="1406.0"/>
    </contour>
    <component base="period" xOffset="79" yOffset="11"/>
  </outline>
</glyph>
<glyph name="comma" format="2">
  <advance width="482"/>
  <unicode hex="002C"/>
  <outline>
    <contour>
      <point x="282.0" y="-36.0" type="curve" smooth="yes"/>
      <point x="330.0" y="-24.0" type="line" smooth="yes"/>
      <point x="338.0" y="-14.0"/>
      <point x="344.0" y="-16.0"/>
      <point x="344.0" y="-20.0" type="curve" smooth="yes"/>
      <point x="344.0" y="-266.0"/>
      <point x="244.0" y="-416.0"/>
      <point x="154.0" y="-424.0" type="curve" smooth="yes"/>
      <point x="150.0" y="-426.0"/>
      <point x="146.0" y="-424.0"/>
      <point x="146.0" y="-428.0" type="curve" smooth="yes"/>
      <point x="146.0" y="-432.0"/>
      <point x="150.0" y="-434.0"/>
      <point x="156.0" y="-434.0" type="curve" smooth="yes"/>
      <point x="228.0" y="-434.0"/>
      <point x="344.0" y="-318.0"/>
      <point x="344.0" y="2.0" type="curve" smooth="yes"/>
      <point x="344.0" y="96.0"/>
      <point x="314.0" y="128.0"/>
      <point x="260.0" y="128.0" type="curve" smooth="yes"/>
      <point x="212.0" y="128.0"/>
      <point x="174.0" y="90.0"/>
      <point x="174.0" y="46.0" type="curve" smooth="yes"/>
      <point x="174.0" y="-16.0"/>
      <point x="228.0" y="-56.0"/>
    </contour>
  </outline>
</glyph>
<glyph name="period" format="2">
  <advance width="318"/>
  <unicode hex="002E"/>
  <outline>
    <contour>
      <point x="160.0" y="-20.0" type="curve" smooth="yes"/>
      <point x="192.0" y="-20.0"/>
      <point x="218.0" y="6.0"/>
      <point x="218.0" y="40.0" type="curve" smooth="yes"/>
      <point x="218.0" y="72.0"/>
      <point x="192.0" y="96.0"/>
      <point x="160.0" y="96.0" type="curve" smooth="yes"/>
      <point x="126.0" y="96.0"/>
      <point x="100.0" y="72.0"/>
      <point x="100.0" y="40.0" type="curve" smooth="yes"/>
      <point x="100.0" y="6.0"/>
      <point x="126.0" y="-20.0"/>
    </contour>
  </outline>
</glyph>
<glyph name="question" format="2">
  <advance width="790"/>
  <unicode hex="003F"/>
  <outline>
    <contour>
      <point x="308.0" y="562.0" type="line" smooth="yes"/>
      <point x="303.0" y="597.0"/>
      <point x="312.0" y="599.3333333333334"/>
      <point x="322.0" y="616.0" type="curve" smooth="yes"/>
      <point x="446.0" y="714.0" type="line" smooth="yes"/>
      <point x="596.0" y="828.0"/>
      <point x="658.0" y="916.0"/>
      <point x="658.0" y="1100.0" type="curve" smooth="yes"/>
      <point x="658.0" y="1316.0"/>
      <point x="566.0" y="1420.0"/>
      <point x="426.0" y="1420.0" type="curve" smooth="yes"/>
      <point x="290.0" y="1420.0"/>
      <point x="214.0" y="1366.0"/>
      <point x="214.0" y="1208.0" type="curve" smooth="yes"/>
      <point x="214.0" y="1194.0" type="line" smooth="yes"/>
      <point x="214.0" y="1152.0"/>
      <point x="184.0" y="1122.0"/>
      <point x="150.0" y="1122.0" type="curve" smooth="yes"/>
      <point x="114.0" y="1122.0"/>
      <point x="88.0" y="1144.0"/>
      <point x="88.0" y="1182.0" type="curve" smooth="yes"/>
      <point x="88.0" y="1298.0"/>
      <point x="210.0" y="1420.0"/>
      <point x="446.0" y="1420.0" type="curve" smooth="yes"/>
      <point x="632.0" y="1420.0"/>
      <point x="736.0" y="1302.0"/>
      <point x="736.0" y="1116.0" type="curve" smooth="yes"/>
      <point x="736.0" y="972.0"/>
      <point x="658.0" y="836.0"/>
      <point x="460.0" y="724.0" type="curve" smooth="yes"/>
      <point x="426.0" y="708.0" type="line" smooth="yes"/>
      <point x="402.0" y="694.0"/>
      <point x="394.0" y="672.0"/>
      <point x="394.0" y="634.0" type="curve" smooth="yes"/>
      <point x="358.0" y="298.0" type="line" smooth="yes"/>
      <point x="360.0" y="294.0"/>
      <point x="362.0" y="294.0"/>
      <point x="356.0" y="294.0" type="curve" smooth="yes"/>
      <point x="344.0" y="294.0"/>
      <point x="346.0" y="296.0"/>
      <point x="348.0" y="290.0" type="curve" smooth="yes"/>
    </contour>
    <component base="period" xOffset="209"/>
  </outline>
</glyph>
<glyph name="A" format="2">
  <advance width="1106"/>
  <unicode hex="0041"/>
  <anchor x="566.0" y="1470.0" name="center"/>
  <outline>
    <contour>
      <point x="274.0" y="544.0" type="line"/>
      <point x="270.0" y="532.0" type="line"/>
      <point x="826.0" y="532.0" type="line"/>
      <point x="824.0" y="544.0" type="line"/>
    </contour>
    <contour>
      <point x="240.0" y="4.0" type="curve" smooth="yes"/>
      <point x="240.0" y="6.0"/>
      <point x="238.0" y="8.0"/>
      <point x="234.0" y="8.0" type="curve" smooth="yes"/>
      <point x="184.0" y="20.0" type="line" smooth="yes"/>
      <point x="144.70699606787807" y="29.430320943709262"/>
      <point x="130.0" y="50.0"/>
      <point x="148.0" y="106.0" type="curve" smooth="yes"/>
      <point x="540.0" y="1382.0" type="line" smooth="yes"/>
      <point x="528.0" y="1380.0" type="line"/>
      <point x="954.0" y="56.0" type="line" smooth="yes"/>
      <point x="962.0" y="34.0"/>
      <point x="952.0" y="14.0"/>
      <point x="928.0" y="12.0" type="curve" smooth="yes"/>
      <point x="860.0" y="8.0" type="line" smooth="yes"/>
      <point x="858.0" y="8.0"/>
      <point x="854.0" y="6.0"/>
      <point x="854.0" y="4.0" type="curve" smooth="yes"/>
      <point x="854.0" y="2.0"/>
      <point x="856.0" y="0.0"/>
      <point x="858.0" y="0.0" type="curve" smooth="yes"/>
      <point x="1100.0" y="0.0" type="line" smooth="yes"/>
      <point x="1102.0" y="0.0"/>
      <point x="1104.0" y="2.0"/>
      <point x="1104.0" y="4.0" type="curve" smooth="yes"/>
      <point x="1104.0" y="6.0"/>
      <point x="1102.0" y="8.0"/>
      <point x="1100.0" y="8.0" type="curve" smooth="yes"/>
      <point x="1054.0" y="8.0"/>
      <point x="1030.0" y="22.0"/>
      <point x="1018.0" y="58.0" type="curve" smooth="yes"/>
      <point x="590.0" y="1364.0" type="line" smooth="yes"/>
      <point x="582.0" y="1386.0"/>
      <point x="582.0" y="1392.0"/>
      <point x="636.0" y="1392.0" type="curve" smooth="yes"/>
      <point x="640.0" y="1392.0"/>
      <point x="642.0" y="1394.0"/>
      <point x="642.0" y="1396.0" type="curve" smooth="yes"/>
      <point x="642.0" y="1398.0"/>
      <point x="640.0" y="1400.0"/>
      <point x="638.0" y="1400.0" type="curve" smooth="yes"/>
      <point x="470.0" y="1400.0" type="line" smooth="yes"/>
      <point x="466.0" y="1400.0"/>
      <point x="464.0" y="1398.0"/>
      <point x="464.0" y="1396.0" type="curve" smooth="yes"/>
      <point x="464.0" y="1394.0"/>
      <point x="466.0" y="1392.0"/>
      <point x="472.0" y="1392.0" type="curve" smooth="yes"/>
      <point x="520.0" y="1392.0"/>
      <point x="528.0" y="1380.0"/>
      <point x="522.0" y="1364.0" type="curve" smooth="yes"/>
      <point x="136.0" y="106.0" type="line" smooth="yes"/>
      <point x="116.0" y="42.0"/>
      <point x="99.28471170328032" y="31.98632516654759"/>
      <point x="78.0" y="26.0" type="curve" smooth="yes"/>
      <point x="14.0" y="8.0" type="line" smooth="yes"/>
      <point x="12.0" y="8.0"/>
      <point x="10.0" y="6.0"/>
      <point x="10.0" y="4.0" type="curve" smooth="yes"/>
      <point x="10.0" y="2.0"/>
      <point x="12.0" y="0.0"/>
      <point x="14.0" y="0.0" type="curve" smooth="yes"/>
      <point x="236.0" y="0.0" type="line" smooth="yes"/>
      <point x="238.0" y="0.0"/>
      <point x="240.0" y="2.0"/>
    </contour>
  </outline>
</glyph>
<glyph name="C" format="2">
  <advance width="1304"/>
  <unicode hex="0043"/>
  <anchor x="720.0" y="1550.0" name="center"/>
  <outline>
    <contour>
      <point x="1216.0" y="284.0" type="curve" smooth="yes"/>
      <point x="1216.0" y="282.0"/>
      <point x="1220.0" y="278.0"/>
      <point x="1216.0" y="278.0" type="curve" smooth="yes"/>
      <point x="1216.0" y="278.0"/>
      <point x="1212.0" y="270.0"/>
      <point x="1216.0" y="276.0" type="curve" smooth="yes"/>
      <point x="1154.0" y="126.0"/>
      <point x="1020.0" y="40.0"/>
      <point x="802.0" y="40.0" type="curve" smooth="yes"/>
      <point x="428.0" y="40.0"/>
      <point x="172.0" y="308.0"/>
      <point x="172.0" y="752.0" type="curve" smooth="yes"/>
      <point x="172.0" y="1172.0"/>
      <point x="416.0" y="1422.0"/>
      <point x="756.0" y="1422.0" type="curve" smooth="yes"/>
      <point x="972.0" y="1422.0"/>
      <point x="1124" y="1330"/>
      <point x="1230.0" y="1091.0" type="curve" smooth="yes"/>
      <point x="1234.0" y="1082.0"/>
      <point x="1241" y="1078"/>
      <point x="1246.0" y="1079.0" type="curve" smooth="yes"/>
      <point x="1252" y="1080"/>
      <point x="1249" y="1091"/>
      <point x="1245.0" y="1103.0" type="curve" smooth="yes"/>
      <point x="1124.0" y="1442.0" type="line" smooth="yes"/>
      <point x="1120" y="1452"/>
      <point x="1124.0" y="1428.0"/>
      <point x="1126.0" y="1428.0" type="curve" smooth="yes"/>
      <point x="1120.0" y="1428.0"/>
      <point x="1068.0" y="1358.0"/>
      <point x="1048.0" y="1358.0" type="curve" smooth="yes"/>
      <point x="1012.0" y="1358.0"/>
      <point x="906.0" y="1426.0"/>
      <point x="746.0" y="1426.0" type="curve" smooth="yes"/>
      <point x="368.0" y="1426.0"/>
      <point x="90.0" y="1116.0"/>
      <point x="90.0" y="676.0" type="curve" smooth="yes"/>
      <point x="90.0" y="260.0"/>
      <point x="340.0" y="-30.0"/>
      <point x="730.0" y="-30.0" type="curve" smooth="yes"/>
      <point x="1006.0" y="-30.0"/>
      <point x="1216.0" y="138.0"/>
    </contour>
  </outline>
</glyph>
<glyph name="D" format="2">
  <advance width="1358"/>
  <unicode hex="0044"/>
  <outline>
    <contour>
      <point x="60.0" y="-6.0" type="curve" smooth="yes"/>
      <point x="60.0" y="-2.0"/>
      <point x="62.0" y="0.0"/>
      <point x="66.0" y="0.0" type="curve" smooth="yes"/>
      <point x="622.0" y="0.0" type="line" smooth="yes"/>
      <point x="996.0" y="0.0"/>
      <point x="1280.0" y="264.0"/>
      <point x="1280.0" y="624.0" type="curve" smooth="yes"/>
      <point x="1280.0" y="1078.0"/>
      <point x="942.0" y="1400.0"/>
      <point x="512.0" y="1400.0" type="curve" smooth="yes"/>
      <point x="108.0" y="1400.0" type="line" smooth="yes"/>
      <point x="74.0" y="1400.0"/>
      <point x="60.0" y="1400.0"/>
      <point x="60.0" y="1402.0" type="curve" smooth="yes"/>
      <point x="60.0" y="1404.0"/>
      <point x="68.0" y="1410.0"/>
      <point x="84.0" y="1406.0" type="curve" smooth="yes"/>
      <point x="190.0" y="1382.0" type="line" smooth="yes"/>
      <point x="222.0" y="1374.0"/>
      <point x="240.0" y="1358.0"/>
      <point x="240.0" y="1326.0" type="curve" smooth="yes"/>
      <point x="240.0" y="76.0" type="line" smooth="yes"/>
      <point x="240.0" y="34.0"/>
      <point x="218.0" y="12.0"/>
      <point x="170.0" y="6.0" type="curve" smooth="yes"/>
      <point x="70.0" y="-12.0" type="line" smooth="yes"/>
      <point x="66.0" y="-12.0"/>
      <point x="60.0" y="-8.0"/>
    </contour>
    <contour>
      <point x="622.0" y="12.0" type="curve" smooth="yes"/>
      <point x="416.0" y="12.0" type="line" smooth="yes"/>
      <point x="352.0" y="12.0"/>
      <point x="318.0" y="42.0"/>
      <point x="318.0" y="96.0" type="curve" smooth="yes"/>
      <point x="318.0" y="1320.0" type="line" smooth="yes"/>
      <point x="318.0" y="1368.0"/>
      <point x="334.0" y="1390.0"/>
      <point x="376.0" y="1390.0" type="curve" smooth="yes"/>
      <point x="514.0" y="1390.0" type="line" smooth="yes"/>
      <point x="914.0" y="1390.0"/>
      <point x="1184.0" y="1106.0"/>
      <point x="1184.0" y="672.0" type="curve" smooth="yes"/>
      <point x="1184.0" y="272.0"/>
      <point x="946.0" y="12.0"/>
    </contour>
  </outline>
</glyph>
<glyph name="E" format="2">
  <advance width="1098"/>
  <unicode hex="0045"/>
  <anchor x="576.0" y="-124.0" name="right"/>
  <outline>
    <contour>
      <point x="286.0" y="704.0" type="line"/>
      <point x="286.0" y="692.0" type="line"/>
      <point x="710.0" y="692.0" type="line" smooth="yes"/>
      <point x="797.7916666666666" y="692.0"/>
      <point x="830.0989194423356" y="663.8798988724521"/>
      <point x="882.0" y="562.0" type="curve" smooth="yes"/>
      <point x="884.0" y="560.0"/>
      <point x="886.0" y="558.0"/>
      <point x="888.0" y="558.0" type="curve" smooth="yes"/>
      <point x="890.0" y="558.0"/>
      <point x="892.0" y="560.0"/>
      <point x="890.0" y="566.0" type="curve" smooth="yes"/>
      <point x="808.0" y="834.0" type="line" smooth="yes"/>
      <point x="806.0" y="842.0"/>
      <point x="804.0" y="846.0"/>
      <point x="800.0" y="844.0" type="curve" smooth="yes"/>
      <point x="798.0" y="844.0"/>
      <point x="798.0" y="842.0"/>
      <point x="798.0" y="838.0" type="curve" smooth="yes"/>
      <point x="803.996899031144" y="738.0516828142652"/>
      <point x="772.6875" y="704.0"/>
      <point x="690.0" y="704.0" type="curve" smooth="yes"/>
    </contour>
    <contour>
      <point x="108.0" y="1396.0" type="curve"/>
      <point x="108.0" y="1394.0"/>
      <point x="110.0" y="1392.0"/>
      <point x="114.0" y="1392.0" type="curve" smooth="yes"/>
      <point x="232.0" y="1376.0" type="line" smooth="yes"/>
      <point x="252.0" y="1374.0"/>
      <point x="260.0" y="1368.0"/>
      <point x="260.0" y="1352.0" type="curve" smooth="yes"/>
      <point x="260.0" y="48.0" type="line" smooth="yes"/>
      <point x="260.0" y="32.0"/>
      <point x="252.0" y="26.0"/>
      <point x="232.0" y="24.0" type="curve" smooth="yes"/>
      <point x="114.0" y="8.0" type="line" smooth="yes"/>
      <point x="110.0" y="8.0"/>
      <point x="108.0" y="6.0"/>
      <point x="108.0" y="4.0" type="curve" smooth="yes"/>
      <point x="108.0" y="2.0"/>
      <point x="110.0" y="0.0"/>
      <point x="114.0" y="0.0" type="curve" smooth="yes"/>
      <point x="826.0" y="0.0" type="line" smooth="yes"/>
      <point x="902.0" y="0.0"/>
      <point x="918.0" y="-34.0"/>
      <point x="936.0" y="-34.0" type="curve" smooth="yes"/>
      <point x="938.0" y="-34.0"/>
      <point x="940.0" y="-32.0"/>
      <point x="944.0" y="-18.0" type="curve" smooth="yes"/>
      <point x="1030.0" y="310.0" type="line" smooth="yes"/>
      <point x="1032.0" y="316.0"/>
      <point x="1032.0" y="322.0"/>
      <point x="1028.0" y="322.0" type="curve" smooth="yes"/>
      <point x="1024.0" y="322.0"/>
      <point x="1022.0" y="318.0"/>
      <point x="1020.0" y="314.0" type="curve" smooth="yes"/>
      <point x="929.322318256401" y="47.88071662204635"/>
      <point x="900.7407407407408" y="12.0"/>
      <point x="790.0" y="12.0" type="curve" smooth="yes"/>
      <point x="366.0" y="12.0" type="line" smooth="yes"/>
      <point x="334.0" y="12.0"/>
      <point x="318.0" y="24.0"/>
      <point x="318.0" y="48.0" type="curve" smooth="yes"/>
      <point x="318.0" y="1388.0" type="line"/>
      <point x="792.0" y="1388.0" type="line" smooth="yes"/>
      <point x="878.0" y="1388.0"/>
      <point x="928.0" y="1336.0"/>
      <point x="996.0" y="1152.0" type="curve" smooth="yes"/>
      <point x="998.0" y="1148.0"/>
      <point x="1000.0" y="1148.0"/>
      <point x="1002.0" y="1148.0" type="curve" smooth="yes"/>
      <point x="1004.0" y="1148.0"/>
      <point x="1006.0" y="1150.0"/>
      <point x="1004.0" y="1154.0" type="curve" smooth="yes"/>
      <point x="930.0" y="1420.0" type="line" smooth="yes"/>
      <point x="926.0" y="1434.0"/>
      <point x="924.0" y="1434.0"/>
      <point x="922.0" y="1434.0" type="curve" smooth="yes"/>
      <point x="916.0" y="1434.0"/>
      <point x="888.0" y="1400.0"/>
      <point x="852.0" y="1400.0" type="curve" smooth="yes"/>
      <point x="114.0" y="1400.0" type="line" smooth="yes"/>
      <point x="110.0" y="1400.0"/>
      <point x="108.0" y="1398.0"/>
    </contour>
  </outline>
</glyph>
<glyph name="F" format="2">
  <advance width="1010"/>
  <unicode hex="0046"/>
  <outline>
    <contour>
      <point x="812.0" y="1400.0" type="curve" smooth="yes"/>
      <point x="114.0" y="1400.0" type="line" smooth="yes"/>
      <point x="110.0" y="1400.0"/>
      <point x="108.0" y="1398.0"/>
      <point x="108.0" y="1396.0" type="curve" smooth="yes"/>
      <point x="108.0" y="1394.0"/>
      <point x="110.0" y="1392.0"/>
      <point x="114.0" y="1392.0" type="curve" smooth="yes"/>
      <point x="232.0" y="1376.0" type="line" smooth="yes"/>
      <point x="252.0" y="1374.0"/>
      <point x="260.0" y="1368.0"/>
      <point x="260.0" y="1352.0" type="curve" smooth="yes"/>
      <point x="260.0" y="48.0" type="line" smooth="yes"/>
      <point x="260.0" y="32.0"/>
      <point x="252.0" y="26.0"/>
      <point x="232.0" y="24.0" type="curve" smooth="yes"/>
      <point x="114.0" y="8.0" type="line" smooth="yes"/>
      <point x="110.0" y="8.0"/>
      <point x="108.0" y="6.0"/>
      <point x="108.0" y="4.0" type="curve" smooth="yes"/>
      <point x="108.0" y="2.0"/>
      <point x="110.0" y="0.0"/>
      <point x="114.0" y="0.0" type="curve" smooth="yes"/>
      <point x="504.0" y="0.0" type="line" smooth="yes"/>
      <point x="508.0" y="0.0"/>
      <point x="510.0" y="2.0"/>
      <point x="510.0" y="4.0" type="curve" smooth="yes"/>
      <point x="510.0" y="6.0"/>
      <point x="508.0" y="8.0"/>
      <point x="504.0" y="8.0" type="curve" smooth="yes"/>
      <point x="366.0" y="24.0" type="line" smooth="yes"/>
      <point x="332.0" y="28.0"/>
      <point x="318.0" y="32.0"/>
      <point x="318.0" y="48.0" type="curve" smooth="yes"/>
      <point x="318.0" y="1388.0" type="line"/>
      <point x="752.0" y="1388.0" type="line" smooth="yes"/>
      <point x="837.6071428571429" y="1388.0"/>
      <point x="892.5805514628173" y="1336.3127723111872"/>
      <point x="956.0" y="1152.0" type="curve" smooth="yes"/>
      <point x="958.0" y="1148.0"/>
      <point x="960.0" y="1148.0"/>
      <point x="962.0" y="1148.0" type="curve" smooth="yes"/>
      <point x="964.0" y="1148.0"/>
      <point x="966.0" y="1150.0"/>
      <point x="964.0" y="1154.0" type="curve" smooth="yes"/>
      <point x="890.0" y="1420.0" type="line" smooth="yes"/>
      <point x="886.0" y="1434.0"/>
      <point x="884.0" y="1434.0"/>
      <point x="882.0" y="1434.0" type="curve" smooth="yes"/>
      <point x="876.0" y="1434.0"/>
      <point x="848.0" y="1400.0"/>
    </contour>
    <contour>
      <point x="282.0" y="684.0" type="line"/>
      <point x="282.0" y="672.0" type="line"/>
      <point x="668.0" y="672.0" type="line" smooth="yes"/>
      <point x="755.7916666666666" y="672.0"/>
      <point x="788.1631189982922" y="641.8339930403258"/>
      <point x="840.0" y="542.0" type="curve" smooth="yes"/>
      <point x="842.0" y="540.0"/>
      <point x="844.0" y="538.0"/>
      <point x="846.0" y="538.0" type="curve" smooth="yes"/>
      <point x="848.0" y="538.0"/>
      <point x="850.0" y="540.0"/>
      <point x="848.0" y="546.0" type="curve" smooth="yes"/>
      <point x="766.0" y="814.0" type="line" smooth="yes"/>
      <point x="764.0" y="822.0"/>
      <point x="762.0" y="826.0"/>
      <point x="758.0" y="824.0" type="curve" smooth="yes"/>
      <point x="756.0" y="824.0"/>
      <point x="756.0" y="822.0"/>
      <point x="756.0" y="818.0" type="curve" smooth="yes"/>
      <point x="771.9423689069428" y="718.3601943316079"/>
      <point x="730.6875" y="684.0"/>
      <point x="648.0" y="684.0" type="curve" smooth="yes"/>
    </contour>
  </outline>
</glyph>
<glyph name="G" format="2">
  <advance width="1354"/>
  <unicode hex="0047"/>
  <outline>
    <contour>
      <point x="1196.0" y="0.0" type="curve" smooth="yes"/>
      <point x="1196.0" y="500.0" type="line" smooth="yes"/>
      <point x="1196.0" y="516.0"/>
      <point x="1204.0" y="522.0"/>
      <point x="1224.0" y="524.0" type="curve" smooth="yes"/>
      <point x="1342.0" y="540.0" type="line" smooth="yes"/>
      <point x="1346.0" y="540.0"/>
      <point x="1348.0" y="542.0"/>
      <point x="1348.0" y="544.0" type="curve"/>
      <point x="1348.0" y="546.0"/>
      <point x="1346.0" y="548.0"/>
      <point x="1342.0" y="548.0" type="curve" smooth="yes"/>
      <point x="932.0" y="548.0" type="line" smooth="yes"/>
      <point x="928.0" y="548.0"/>
      <point x="926.0" y="546.0"/>
      <point x="926.0" y="544.0" type="curve" smooth="yes"/>
      <point x="926.0" y="542.0"/>
      <point x="928.0" y="540.0"/>
      <point x="932.0" y="540.0" type="curve" smooth="yes"/>
      <point x="1110.0" y="524.0" type="line" smooth="yes"/>
      <point x="1130.0" y="522.0"/>
      <point x="1138.0" y="516.0"/>
      <point x="1138.0" y="500.0" type="curve" smooth="yes"/>
      <point x="1138.0" y="148.0" type="line" smooth="yes"/>
      <point x="1138.0" y="32.0"/>
      <point x="918.0" y="-8.0"/>
      <point x="772.0" y="-8.0" type="curve" smooth="yes"/>
      <point x="418.0" y="-8.0"/>
      <point x="154.0" y="273.02997275204365"/>
      <point x="154.0" y="734.0" type="curve" smooth="yes"/>
      <point x="154.0" y="1167.1411411411411"/>
      <point x="422.0" y="1408.0"/>
      <point x="756.0" y="1408.0" type="curve" smooth="yes"/>
      <point x="988.0" y="1408.0"/>
      <point x="1150.0" y="1292.0"/>
      <point x="1218.0" y="1074.0" type="curve" smooth="yes"/>
      <point x="1220.0" y="1070.0"/>
      <point x="1224.0" y="1068.0"/>
      <point x="1226.0" y="1070.0" type="curve" smooth="yes"/>
      <point x="1228.0" y="1072.0"/>
      <point x="1226.0" y="1076.0"/>
      <point x="1226.0" y="1078.0" type="curve" smooth="yes"/>
      <point x="1156.0" y="1412.0" type="line" smooth="yes"/>
      <point x="1156.0" y="1416.0"/>
      <point x="1152.0" y="1418.0"/>
      <point x="1150.0" y="1418.0" type="curve" smooth="yes"/>
      <point x="1143.3714285714286" y="1418.0"/>
      <point x="1106.5" y="1310.0"/>
      <point x="1092.0" y="1310.0" type="curve" smooth="yes"/>
      <point x="1077.7391304347825" y="1310.0"/>
      <point x="981.9875776397516" y="1420.0"/>
      <point x="764.0" y="1420.0" type="curve" smooth="yes"/>
      <point x="388.0" y="1420.0"/>
      <point x="90.0" y="1138.0"/>
      <point x="90.0" y="700.0" type="curve" smooth="yes"/>
      <point x="90.0" y="296.0"/>
      <point x="370.0" y="-20.0"/>
      <point x="770.0" y="-20.0" type="curve" smooth="yes"/>
      <point x="1024.0" y="-20.0"/>
      <point x="1105.6896551724137" y="68.0"/>
      <point x="1124.0" y="68.0" type="curve" smooth="yes"/>
      <point x="1146.054054054054" y="68.0"/>
      <point x="1182.9333333333334" y="-22.0"/>
      <point x="1192.0" y="-22.0" type="curve" smooth="yes"/>
      <point x="1194.0" y="-22.0"/>
      <point x="1196.0" y="-20.0"/>
    </contour>
  </outline>
</glyph>
<glyph name="L" format="2">
  <advance width="968"/>
  <unicode hex="004C"/>
  <anchor x="300.0" y="1478.0" name="center"/>
  <outline>
    <contour>
      <point x="464" y="1392" type="line" smooth="yes"/>
      <point x="468" y="1392"/>
      <point x="470" y="1394"/>
      <point x="470" y="1396" type="curve" smooth="yes"/>
      <point x="470" y="1398"/>
      <point x="468" y="1400"/>
      <point x="464" y="1400" type="curve" smooth="yes"/>
      <point x="114" y="1400" type="line" smooth="yes"/>
      <point x="110" y="1400"/>
      <point x="108" y="1398"/>
      <point x="108" y="1396" type="curve" smooth="yes"/>
      <point x="108" y="1394"/>
      <point x="110" y="1392"/>
      <point x="114" y="1392" type="curve" smooth="yes"/>
      <point x="232" y="1376" type="line" smooth="yes"/>
      <point x="252" y="1374"/>
      <point x="260" y="1368"/>
      <point x="260" y="1352" type="curve" smooth="yes"/>
      <point x="260" y="48" type="line" smooth="yes"/>
      <point x="260" y="32"/>
      <point x="252" y="26"/>
      <point x="232" y="24" type="curve" smooth="yes"/>
      <point x="114" y="8" type="line" smooth="yes"/>
      <point x="110" y="8"/>
      <point x="108" y="6"/>
      <point x="108" y="4" type="curve" smooth="yes"/>
      <point x="108" y="2"/>
      <point x="110" y="0"/>
      <point x="114" y="0" type="curve" smooth="yes"/>
      <point x="746" y="0" type="line" smooth="yes"/>
      <point x="822" y="0"/>
      <point x="838" y="-34"/>
      <point x="856" y="-34" type="curve" smooth="yes"/>
      <point x="858" y="-34"/>
      <point x="860" y="-32"/>
      <point x="864" y="-18" type="curve" smooth="yes"/>
      <point x="950" y="310" type="line" smooth="yes"/>
      <point x="952" y="316"/>
      <point x="952" y="322"/>
      <point x="948" y="322" type="curve" smooth="yes"/>
      <point x="944" y="322"/>
      <point x="942" y="318"/>
      <point x="940" y="314" type="curve" smooth="yes"/>
      <point x="874" y="168" type="line" smooth="yes"/>
      <point x="818" y="43"/>
      <point x="764" y="12.0"/>
      <point x="642" y="12" type="curve" smooth="yes"/>
      <point x="366" y="12" type="line" smooth="yes"/>
      <point x="334" y="12"/>
      <point x="318" y="24"/>
      <point x="318" y="48" type="curve" smooth="yes"/>
      <point x="318" y="1352" type="line" smooth="yes"/>
      <point x="318" y="1368"/>
      <point x="326" y="1374"/>
      <point x="346" y="1376" type="curve" smooth="yes"/>
    </contour>
  </outline>
</glyph>
<glyph name="M" format="2">
  <advance width="1506"/>
  <unicode hex="004D"/>
  <outline>
    <contour>
      <point x="780.0" y="292.0" type="line"/>
      <point x="308.0" y="1382.0" type="line" smooth="yes"/>
      <point x="302.0" y="1398.0"/>
      <point x="300.0" y="1400.0"/>
      <point x="288.0" y="1400.0" type="curve" smooth="yes"/>
      <point x="136.0" y="1400.0" type="line" smooth="yes"/>
      <point x="124.0" y="1400.0"/>
      <point x="116.0" y="1398.0"/>
      <point x="116.0" y="1392.0" type="curve" smooth="yes"/>
      <point x="116.0" y="1386.0"/>
      <point x="126.0" y="1386.0"/>
      <point x="144.0" y="1384.0" type="curve" smooth="yes"/>
      <point x="246.0" y="1372.0" type="line" smooth="yes"/>
      <point x="270.0" y="1370.0"/>
      <point x="278.0" y="1354.0"/>
      <point x="276.0" y="1336.0" type="curve" smooth="yes"/>
      <point x="202.0" y="86.0" type="line" smooth="yes"/>
      <point x="200.0" y="56.0"/>
      <point x="192.0" y="44.0"/>
      <point x="158.0" y="36.0" type="curve" smooth="yes"/>
      <point x="38.0" y="8.0" type="line" smooth="yes"/>
      <point x="32.0" y="6.0"/>
      <point x="30.0" y="6.0"/>
      <point x="30.0" y="4.0" type="curve" smooth="yes"/>
      <point x="30.0" y="2.0"/>
      <point x="32.0" y="0.0"/>
      <point x="36.0" y="0.0" type="curve" smooth="yes"/>
      <point x="420.0" y="0.0" type="line" smooth="yes"/>
      <point x="424.0" y="0.0"/>
      <point x="426.0" y="2.0"/>
      <point x="426.0" y="4.0" type="curve" smooth="yes"/>
      <point x="426.0" y="6.0"/>
      <point x="422.0" y="8.0"/>
      <point x="418.0" y="8.0" type="curve" smooth="yes"/>
      <point x="242.0" y="38.0" type="line" smooth="yes"/>
      <point x="218.0" y="42.0"/>
      <point x="212.0" y="56.0"/>
      <point x="214.0" y="86.0" type="curve" smooth="yes"/>
      <point x="286.0" y="1312.0" type="line"/>
      <point x="278.0" y="1298.0" type="line"/>
      <point x="740.0" y="236.0" type="line" smooth="yes"/>
      <point x="744.0" y="228.0"/>
      <point x="746.0" y="222.0"/>
      <point x="750.0" y="222.0" type="curve" smooth="yes"/>
      <point x="754.0" y="222.0"/>
      <point x="756.0" y="226.0"/>
      <point x="760.0" y="236.0" type="curve" smooth="yes"/>
      <point x="1196.0" y="1306.0" type="line"/>
      <point x="1186.0" y="1312.0" type="line"/>
      <point x="1276.0" y="48.0" type="line" smooth="yes"/>
      <point x="1276.0" y="34.0"/>
      <point x="1268.0" y="26.0"/>
      <point x="1248.0" y="24.0" type="curve" smooth="yes"/>
      <point x="1130.0" y="8.0" type="line" smooth="yes"/>
      <point x="1126.0" y="8.0"/>
      <point x="1124.0" y="6.0"/>
      <point x="1124.0" y="4.0" type="curve" smooth="yes"/>
      <point x="1124.0" y="2.0"/>
      <point x="1126.0" y="0.0"/>
      <point x="1130.0" y="0.0" type="curve" smooth="yes"/>
      <point x="1474.0" y="0.0" type="line" smooth="yes"/>
      <point x="1478.0" y="0.0"/>
      <point x="1480.0" y="2.0"/>
      <point x="1480.0" y="4.0" type="curve" smooth="yes"/>
      <point x="1480.0" y="6.0"/>
      <point x="1478.0" y="8.0"/>
      <point x="1474.0" y="8.0" type="curve" smooth="yes"/>
      <point x="1356.0" y="24.0" type="line" smooth="yes"/>
      <point x="1338.0" y="26.0"/>
      <point x="1336.0" y="34.0"/>
      <point x="1334.0" y="50.0" type="curve" smooth="yes"/>
      <point x="1242.0" y="1348.0" type="line" smooth="yes"/>
      <point x="1242.0" y="1362.0"/>
      <point x="1248.0" y="1372.0"/>
      <point x="1260.0" y="1374.0" type="curve" smooth="yes"/>
      <point x="1390.0" y="1392.0" type="line" smooth="yes"/>
      <point x="1394.0" y="1392.0"/>
      <point x="1396.0" y="1394.0"/>
      <point x="1396.0" y="1396.0" type="curve" smooth="yes"/>
      <point x="1396.0" y="1398.0"/>
      <point x="1394.0" y="1400.0"/>
      <point x="1390.0" y="1400.0" type="curve" smooth="yes"/>
      <point x="1234.0" y="1400.0" type="line" smooth="yes"/>
      <point x="1224.0" y="1400.0"/>
      <point x="1222.0" y="1398.0"/>
      <point x="1216.0" y="1384.0" type="curve" smooth="yes"/>
      <point x="764.0" y="274.0" type="line"/>
    </contour>
  </outline>
</glyph>
<glyph name="R" format="2">
  <advance width="1212"/>
  <unicode hex="0052"/>
  <anchor x="628.0" y="1476.0" name="center"/>
  <outline>
    <contour>
      <point x="1046" y="930" type="curve" smooth="yes"/>
      <point x="1046" y="1210"/>
      <point x="850" y="1400"/>
      <point x="480" y="1400" type="curve" smooth="yes"/>
      <point x="114" y="1400" type="line" smooth="yes"/>
      <point x="110" y="1400"/>
      <point x="108" y="1398"/>
      <point x="108" y="1396" type="curve" smooth="yes"/>
      <point x="108" y="1394"/>
      <point x="110" y="1392"/>
      <point x="114" y="1392" type="curve" smooth="yes"/>
      <point x="232" y="1376" type="line" smooth="yes"/>
      <point x="252" y="1374"/>
      <point x="260" y="1368"/>
      <point x="260" y="1352" type="curve" smooth="yes"/>
      <point x="260" y="48" type="line" smooth="yes"/>
      <point x="260" y="32"/>
      <point x="252" y="26"/>
      <point x="232" y="24" type="curve" smooth="yes"/>
      <point x="114" y="8" type="line" smooth="yes"/>
      <point x="110" y="8"/>
      <point x="108" y="6"/>
      <point x="108" y="4" type="curve" smooth="yes"/>
      <point x="108" y="2"/>
      <point x="110" y="0"/>
      <point x="114" y="0" type="curve" smooth="yes"/>
      <point x="464" y="0" type="line" smooth="yes"/>
      <point x="468" y="0"/>
      <point x="470" y="2"/>
      <point x="470" y="4" type="curve" smooth="yes"/>
      <point x="470" y="6"/>
      <point x="468" y="8"/>
      <point x="464" y="8" type="curve" smooth="yes"/>
      <point x="346" y="24" type="line" smooth="yes"/>
      <point x="326" y="26"/>
      <point x="318" y="32"/>
      <point x="318" y="48" type="curve" smooth="yes"/>
      <point x="318" y="1388" type="line"/>
      <point x="480" y="1388" type="line" smooth="yes"/>
      <point x="788" y="1388"/>
      <point x="986" y="1201"/>
      <point x="986" y="944" type="curve" smooth="yes"/>
      <point x="986" y="700"/>
      <point x="842" y="554"/>
      <point x="600" y="554" type="curve" smooth="yes"/>
      <point x="490" y="554"/>
      <point x="374" y="576"/>
      <point x="294" y="634" type="curve"/>
      <point x="288" y="626" type="line"/>
      <point x="364" y="566"/>
      <point x="482" y="540"/>
      <point x="608" y="540" type="curve" smooth="yes"/>
      <point x="641" y="540"/>
      <point x="673" y="542"/>
      <point x="703" y="547" type="curve" smooth="yes"/>
      <point x="914" y="579"/>
      <point x="1046" y="723"/>
    </contour>
    <contour>
      <point x="666.0" y="548.0" type="line"/>
      <point x="978.0" y="74.0" type="line" smooth="yes"/>
      <point x="999.2645155896512" y="41.69429362341452"/>
      <point x="1002.362404345334" y="18.2543606518001"/>
      <point x="974.0" y="14.0" type="curve" smooth="yes"/>
      <point x="934.0" y="8.0" type="line" smooth="yes"/>
      <point x="930.0" y="8.0"/>
      <point x="928.0" y="6.0"/>
      <point x="928.0" y="4.0" type="curve" smooth="yes"/>
      <point x="928.0" y="2.0"/>
      <point x="930.0" y="0.0"/>
      <point x="934.0" y="0.0" type="curve" smooth="yes"/>
      <point x="1154.0" y="0.0" type="line" smooth="yes"/>
      <point x="1158.0" y="0.0"/>
      <point x="1160.0" y="2.0"/>
      <point x="1160.0" y="4.0" type="curve" smooth="yes"/>
      <point x="1160.0" y="6.0"/>
      <point x="1158.0" y="8.0"/>
      <point x="1154.0" y="8.0" type="curve" smooth="yes"/>
      <point x="1110.0" y="14.0"/>
      <point x="1078.0" y="26.0"/>
      <point x="1036.0" y="88.0" type="curve" smooth="yes"/>
      <point x="720.0" y="556.0" type="line"/>
    </contour>
  </outline>
</glyph>
<glyph name="S" format="2">
  <advance width="1052"/>
  <unicode hex="0053"/>
  <outline>
    <contour>
      <point x="600.0" y="-22.0" type="curve" smooth="yes"/>
      <point x="806.0" y="-22.0"/>
      <point x="924.0" y="120.0"/>
      <point x="924.0" y="300.0" type="curve" smooth="yes"/>
      <point x="924.0" y="454.45544554455444"/>
      <point x="836.3036971665053" y="583.0971997590723"/>
      <point x="538.0" y="700.0" type="curve" smooth="yes"/>
      <point x="250.25257028904872" y="813.1145068518912"/>
      <point x="164.0" y="944.4820512820513"/>
      <point x="164.0" y="1094.0" type="curve" smooth="yes"/>
      <point x="164.0" y="1296.0"/>
      <point x="300.0" y="1408.0"/>
      <point x="486.0" y="1408.0" type="curve" smooth="yes"/>
      <point x="686.0" y="1408.0"/>
      <point x="846.0" y="1306.0"/>
      <point x="932.0" y="1046.0" type="curve" smooth="yes"/>
      <point x="934.0" y="1042.0"/>
      <point x="938.0" y="1040.0"/>
      <point x="940.0" y="1042.0" type="curve" smooth="yes"/>
      <point x="942.0" y="1044.0"/>
      <point x="940.0" y="1048.0"/>
      <point x="940.0" y="1050.0" type="curve" smooth="yes"/>
      <point x="842.0" y="1412.0" type="line" smooth="yes"/>
      <point x="840.0" y="1418.0"/>
      <point x="838.0" y="1418.0"/>
      <point x="836.0" y="1418.0" type="curve" smooth="yes"/>
      <point x="832.6" y="1418.0"/>
      <point x="810.8148148148148" y="1308.0"/>
      <point x="802.0" y="1308.0" type="curve" smooth="yes"/>
      <point x="778.5135135135135" y="1308.0"/>
      <point x="695.2432432432432" y="1420.0"/>
      <point x="486.0" y="1420.0" type="curve" smooth="yes"/>
      <point x="290.0" y="1420.0"/>
      <point x="122.0" y="1278.0"/>
      <point x="122.0" y="1064.0" type="curve" smooth="yes"/>
      <point x="122.0" y="889.7087378640776"/>
      <point x="219.77727536061872" y="768.8765674634179"/>
      <point x="506.0" y="656.0" type="curve" smooth="yes"/>
      <point x="795.744691918308" y="542.8804969907975"/>
      <point x="882.0" y="413.4869109947644"/>
      <point x="882.0" y="270.0" type="curve" smooth="yes"/>
      <point x="882.0" y="98.0"/>
      <point x="770.0" y="-10.0"/>
      <point x="600.0" y="-10.0" type="curve" smooth="yes"/>
      <point x="406.0" y="-10.0"/>
      <point x="236.0" y="88.0"/>
      <point x="150.0" y="324.0" type="curve" smooth="yes"/>
      <point x="148.0" y="328.0"/>
      <point x="144.0" y="330.0"/>
      <point x="142.0" y="328.0" type="curve" smooth="yes"/>
      <point x="140.0" y="326.0"/>
      <point x="142.0" y="322.0"/>
      <point x="142.0" y="320.0" type="curve" smooth="yes"/>
      <point x="232.0" y="-14.0" type="line" smooth="yes"/>
      <point x="234.0" y="-18.0"/>
      <point x="236.0" y="-20.0"/>
      <point x="240.0" y="-20.0" type="curve" smooth="yes"/>
      <point x="247.55555555555554" y="-20.0"/>
      <point x="266.44444444444446" y="92.0"/>
      <point x="274.0" y="92.0" type="curve" smooth="yes"/>
      <point x="299.5686274509804" y="92.0"/>
      <point x="386.0" y="-22.0"/>
    </contour>
  </outline>
</glyph>
<glyph name="U" format="2">
  <advance width="1234"/>
  <unicode hex="0055"/>
  <anchor x="510.0" y="-162.0" name="right"/>
  <anchor x="704.0" y="1460.0" name="center"/>
  <outline>
    <contour>
      <point x="1048.0" y="570.0" type="line" smooth="yes"/>
      <point x="1050.0" y="514.0"/>
      <point x="1058.0" y="434.0"/>
      <point x="1058.0" y="366.0" type="curve" smooth="yes"/>
      <point x="1058.0" y="144.0"/>
      <point x="912.0" y="-6.0"/>
      <point x="662.0" y="-6.0" type="curve" smooth="yes"/>
      <point x="388.0" y="-6.0"/>
      <point x="248.0" y="138.0"/>
      <point x="248.0" y="394.0" type="curve" smooth="yes"/>
      <point x="248.0" y="450.0"/>
      <point x="248.0" y="536.0"/>
      <point x="254.0" y="636.0" type="curve" smooth="yes"/>
      <point x="296.0" y="1346.0" type="line" smooth="yes"/>
      <point x="298.0" y="1370.0"/>
      <point x="302.0" y="1374.0"/>
      <point x="324.0" y="1376.0" type="curve" smooth="yes"/>
      <point x="442.0" y="1392.0" type="line" smooth="yes"/>
      <point x="446.0" y="1392.0"/>
      <point x="448.0" y="1394.0"/>
      <point x="448.0" y="1396.0" type="curve" smooth="yes"/>
      <point x="448.0" y="1398.0"/>
      <point x="446.0" y="1400.0"/>
      <point x="442.0" y="1400.0" type="curve" smooth="yes"/>
      <point x="92.0" y="1400.0" type="line" smooth="yes"/>
      <point x="88.0" y="1400.0"/>
      <point x="86.0" y="1398.0"/>
      <point x="86.0" y="1396.0" type="curve" smooth="yes"/>
      <point x="86.0" y="1394.0"/>
      <point x="88.0" y="1392.0"/>
      <point x="92.0" y="1392.0" type="curve" smooth="yes"/>
      <point x="210.0" y="1376.0" type="line" smooth="yes"/>
      <point x="230.0" y="1374.0"/>
      <point x="238.0" y="1368.0"/>
      <point x="238.0" y="1352.0" type="curve" smooth="yes"/>
      <point x="194.0" y="630.0" type="line" smooth="yes"/>
      <point x="190.0" y="562.0"/>
      <point x="186.0" y="434.0"/>
      <point x="186.0" y="374.0" type="curve" smooth="yes"/>
      <point x="186.0" y="146.0"/>
      <point x="340.0" y="-30.0"/>
      <point x="646.0" y="-30.0" type="curve" smooth="yes"/>
      <point x="936.0" y="-30.0"/>
      <point x="1070.0" y="146.0"/>
      <point x="1070.0" y="366.0" type="curve" smooth="yes"/>
      <point x="1070.0" y="438.0"/>
      <point x="1064.0" y="508.0"/>
      <point x="1060.0" y="580.0" type="curve" smooth="yes"/>
      <point x="1028.0" y="1326.0" type="line" smooth="yes"/>
      <point x="1028.0" y="1336.0"/>
      <point x="1032.0" y="1350.0"/>
      <point x="1046.0" y="1354.0" type="curve" smooth="yes"/>
      <point x="1168.0" y="1390.0" type="line" smooth="yes"/>
      <point x="1176.0" y="1392.0"/>
      <point x="1180.0" y="1394.0"/>
      <point x="1180.0" y="1396.0" type="curve" smooth="yes"/>
      <point x="1180.0" y="1398.0"/>
      <point x="1178.0" y="1400.0"/>
      <point x="1174.0" y="1400.0" type="curve" smooth="yes"/>
      <point x="824.0" y="1400.0" type="line" smooth="yes"/>
      <point x="820.0" y="1400.0"/>
      <point x="818.0" y="1398.0"/>
      <point x="818.0" y="1396.0" type="curve" smooth="yes"/>
      <point x="818.0" y="1394.0"/>
      <point x="820.0" y="1392.0"/>
      <point x="824.0" y="1392.0" type="curve" smooth="yes"/>
      <point x="976.0" y="1358.0" type="line" smooth="yes"/>
      <point x="1008.0" y="1350.0"/>
      <point x="1010.0" y="1340.0"/>
      <point x="1010.0" y="1330.0" type="curve" smooth="yes"/>
    </contour>
  </outline>
</glyph>
<glyph name="X" format="2">
  <advance width="1230"/>
  <unicode hex="0058"/>
  <outline>
    <contour>
      <point x="1122.0" y="82.0" type="curve" smooth="yes"/>
      <point x="210.0" y="1338.0" type="line" smooth="yes"/>
      <point x="182.0" y="1376.0"/>
      <point x="234.0" y="1384.0"/>
      <point x="272.0" y="1390.0" type="curve" smooth="yes"/>
      <point x="352.0" y="1410.0" type="line" smooth="yes"/>
      <point x="366.0" y="1414.0"/>
      <point x="366.0" y="1408.0"/>
      <point x="366.0" y="1406.0" type="curve" smooth="yes"/>
      <point x="366.0" y="1402.0"/>
      <point x="366.0" y="1400.0"/>
      <point x="368.0" y="1400.0" type="curve" smooth="yes"/>
      <point x="28.0" y="1400.0" type="line" smooth="yes"/>
      <point x="16.0" y="1400.0"/>
      <point x="8.0" y="1402.0"/>
      <point x="8.0" y="1408.0" type="curve" smooth="yes"/>
      <point x="8.0" y="1406.0"/>
      <point x="14.0" y="1410.0"/>
      <point x="30.0" y="1406.0" type="curve" smooth="yes"/>
      <point x="76.0" y="1390.0"/>
      <point x="100.0" y="1374.0"/>
      <point x="144.0" y="1312.0" type="curve" smooth="yes"/>
      <point x="1074.0" y="54.0" type="line" smooth="yes"/>
      <point x="1084.0" y="38.0"/>
      <point x="1024.0" y="-24.0"/>
      <point x="948.0" y="-6.0" type="curve" smooth="yes"/>
      <point x="930.0" y="0.0"/>
      <point x="918.0" y="-6.0"/>
      <point x="918.0" y="-4.0" type="curve" smooth="yes"/>
      <point x="918.0" y="-2.0"/>
      <point x="920.0" y="0.0"/>
      <point x="922.0" y="0.0" type="curve" smooth="yes"/>
      <point x="1226.0" y="0.0" type="line" smooth="yes"/>
      <point x="1226.0" y="0.0"/>
      <point x="1232.0" y="-2.0"/>
      <point x="1232.0" y="-4.0" type="curve" smooth="yes"/>
      <point x="1232.0" y="-8.0"/>
      <point x="1226.0" y="-14.0"/>
      <point x="1216.0" y="-12.0" type="curve" smooth="yes"/>
      <point x="1188.0" y="-10.0"/>
      <point x="1156.0" y="32.0"/>
    </contour>
    <contour>
      <point x="626.0" y="700.0" type="line"/>
      <point x="972.0" y="1240.0" type="line" smooth="yes"/>
      <point x="1046.0" y="1352.0"/>
      <point x="1168.0" y="1412.0"/>
      <point x="1202.0" y="1418.0" type="curve" smooth="yes"/>
      <point x="1220.0" y="1422.0"/>
      <point x="1230.0" y="1416.0"/>
      <point x="1230.0" y="1412.0" type="curve" smooth="yes"/>
      <point x="1228.0" y="1410.0"/>
      <point x="1230.0" y="1400.0"/>
      <point x="1222.0" y="1400.0" type="curve" smooth="yes"/>
      <point x="846.0" y="1400.0" type="line" smooth="yes"/>
      <point x="840.0" y="1400.0"/>
      <point x="836.0" y="1402.0"/>
      <point x="836.0" y="1406.0" type="curve" smooth="yes"/>
      <point x="836.0" y="1406.0"/>
      <point x="844.0" y="1402.0"/>
      <point x="856.0" y="1406.0" type="curve" smooth="yes"/>
      <point x="946.0" y="1388.0" type="line" smooth="yes"/>
      <point x="982.0" y="1384.0"/>
      <point x="1004.0" y="1332.0"/>
      <point x="1000.0" y="1314.0" type="curve" smooth="yes"/>
      <point x="634.0" y="736.0" type="line"/>
    </contour>
    <contour>
      <point x="622.0" y="708.0" type="line"/>
      <point x="248.0" y="174.0" type="line" smooth="yes"/>
      <point x="168.0" y="58.0"/>
      <point x="84.0" y="-6.0"/>
      <point x="10.0" y="-20.0" type="curve" smooth="yes"/>
      <point x="4.0" y="-26.0"/>
      <point x="-8.0" y="-18.0"/>
      <point x="-8.0" y="-18.0" type="curve" smooth="yes"/>
      <point x="-8.0" y="-6.0"/>
      <point x="-12.0" y="2.0"/>
      <point x="-8.0" y="2.0" type="curve" smooth="yes"/>
      <point x="380.0" y="2.0" type="line" smooth="yes"/>
      <point x="390.0" y="2.0"/>
      <point x="398.0" y="0.0"/>
      <point x="398.0" y="-2.0" type="curve" smooth="yes"/>
      <point x="398.0" y="-2.0"/>
      <point x="386.0" y="-8.0"/>
      <point x="370.0" y="-2.0" type="curve" smooth="yes"/>
      <point x="296.0" y="24.0" type="line" smooth="yes"/>
      <point x="240.0" y="42.0"/>
      <point x="228.0" y="92.0"/>
      <point x="264.0" y="148.0" type="curve" smooth="yes"/>
      <point x="614.0" y="668.0" type="line"/>
    </contour>
  </outline>
</glyph>
<glyph name="Y" format="2">
  <advance width="1190"/>
  <unicode hex="0059"/>
  <anchor x="666.0" y="1420.0" name="center"/>
  <outline>
    <contour>
      <point x="600" y="372" type="line"/>
      <point x="984" y="1224" type="line" smooth="yes"/>
      <point x="1024" y="1313"/>
      <point x="1071" y="1349"/>
      <point x="1129" y="1364" type="curve" smooth="yes"/>
      <point x="1160" y="1372" type="line" smooth="yes"/>
      <point x="1177" y="1376"/>
      <point x="1188.0" y="1378.0"/>
      <point x="1188.0" y="1393.0" type="curve" smooth="yes"/>
      <point x="1188" y="1399"/>
      <point x="1184" y="1400"/>
      <point x="1174" y="1400" type="curve" smooth="yes"/>
      <point x="824" y="1400" type="line" smooth="yes"/>
      <point x="813" y="1400"/>
      <point x="805" y="1400"/>
      <point x="805" y="1390" type="curve" smooth="yes"/>
      <point x="805" y="1382"/>
      <point x="817" y="1385"/>
      <point x="834" y="1382" type="curve" smooth="yes"/>
      <point x="870" y="1375" type="line" smooth="yes"/>
      <point x="989" y="1352"/>
      <point x="966" y="1286"/>
      <point x="936" y="1220" type="curve" smooth="yes"/>
      <point x="598" y="468" type="line"/>
      <point x="610" y="467" type="line"/>
      <point x="218" y="1304" type="line" smooth="yes"/>
      <point x="203" y="1336"/>
      <point x="210" y="1367"/>
      <point x="228" y="1370" type="curve" smooth="yes"/>
      <point x="336" y="1390" type="line" smooth="yes"/>
      <point x="356" y="1394"/>
      <point x="366" y="1392"/>
      <point x="366" y="1397" type="curve" smooth="yes"/>
      <point x="366" y="1399"/>
      <point x="359" y="1400"/>
      <point x="352" y="1400" type="curve" smooth="yes"/>
      <point x="22" y="1400" type="line" smooth="yes"/>
      <point x="10" y="1400"/>
      <point x="2" y="1400"/>
      <point x="2" y="1396" type="curve" smooth="yes"/>
      <point x="2" y="1392"/>
      <point x="12" y="1391"/>
      <point x="24" y="1386" type="curve" smooth="yes"/>
      <point x="57" y="1373" type="line" smooth="yes"/>
      <point x="88" y="1361"/>
      <point x="114" y="1345"/>
      <point x="130" y="1312" type="curve" smooth="yes"/>
      <point x="590" y="372" type="line"/>
    </contour>
    <contour>
      <point x="552" y="470" type="line"/>
      <point x="552" y="72" type="line" smooth="yes"/>
      <point x="552" y="48.41379310344827"/>
      <point x="535.482613850716" y="41.24134976545224"/>
      <point x="500" y="34" type="curve" smooth="yes"/>
      <point x="402" y="14" type="line" smooth="yes"/>
      <point x="395" y="13"/>
      <point x="374" y="11"/>
      <point x="374" y="6" type="curve" smooth="yes"/>
      <point x="374" y="2"/>
      <point x="376.0" y="0"/>
      <point x="392" y="0" type="curve" smooth="yes"/>
      <point x="780" y="0" type="line" smooth="yes"/>
      <point x="796.0" y="0"/>
      <point x="803" y="2"/>
      <point x="802" y="6" type="curve" smooth="yes"/>
      <point x="801.0" y="10.0"/>
      <point x="786" y="11"/>
      <point x="770" y="14" type="curve" smooth="yes"/>
      <point x="678" y="34" type="line" smooth="yes"/>
      <point x="642.2814153638818" y="41.76490970350396"/>
      <point x="624" y="48.41379310344827"/>
      <point x="624" y="72" type="curve" smooth="yes"/>
      <point x="624" y="470" type="line"/>
    </contour>
  </outline>
</glyph>
<glyph name="Z" format="2">
  <advance width="1022"/>
  <unicode hex="005A"/>
  <outline>
    <contour>
      <point x="990.0" y="1392.0" type="line" smooth="yes"/>
      <point x="992.0" y="1396.0"/>
      <point x="994.0" y="1388.0"/>
      <point x="994.0" y="1396.0" type="curve" smooth="yes"/>
      <point x="994.0" y="1398.0"/>
      <point x="984.0" y="1396.0"/>
      <point x="968.0" y="1396.0" type="curve" smooth="yes"/>
      <point x="174.0" y="1396.0" type="line" smooth="yes"/>
      <point x="158.0" y="1396.0"/>
      <point x="142.0" y="1428.0"/>
      <point x="128.0" y="1428.0" type="curve" smooth="yes"/>
      <point x="130.0" y="1428.0"/>
      <point x="137" y="1433"/>
      <point x="136.0" y="1430.0" type="curve" smooth="yes"/>
      <point x="76.0" y="1216.0" type="line" smooth="yes"/>
      <point x="72.81729042357472" y="1206.451871270724"/>
      <point x="54" y="1170"/>
      <point x="62.0" y="1162.0" type="curve" smooth="yes"/>
      <point x="66" y="1158"/>
      <point x="93" y="1172"/>
      <point x="99.0" y="1183.0" type="curve" smooth="yes"/>
      <point x="148.0" y="1280.0" type="line" smooth="yes"/>
      <point x="194" y="1370"/>
      <point x="212.0" y="1380.0"/>
      <point x="328.0" y="1380.0" type="curve" smooth="yes"/>
      <point x="898.0" y="1380.0" type="line"/>
      <point x="882.0" y="1368.0" type="line"/>
      <point x="28.0" y="12.0" type="line" smooth="yes"/>
      <point x="28.0" y="12.0"/>
      <point x="20.0" y="4.0"/>
      <point x="20.0" y="-14.0" type="curve" smooth="yes"/>
      <point x="20.0" y="-10.0"/>
      <point x="22.0" y="-4.0"/>
      <point x="30.0" y="-4.0" type="curve" smooth="yes"/>
      <point x="802.0" y="-4.0" type="line" smooth="yes"/>
      <point x="842.0" y="-4.0"/>
      <point x="870.0" y="-38.0"/>
      <point x="892.0" y="-38.0" type="curve" smooth="yes"/>
      <point x="882.0" y="-38.0"/>
      <point x="879" y="-41"/>
      <point x="880.0" y="-38.0" type="curve" smooth="yes"/>
      <point x="973.0" y="251.0" type="line" smooth="yes"/>
      <point x="979" y="270"/>
      <point x="976" y="300.0"/>
      <point x="964.0" y="300.0" type="curve" smooth="yes"/>
      <point x="958" y="300"/>
      <point x="954.0" y="292.0"/>
      <point x="950.0" y="290.0" type="curve" smooth="yes"/>
      <point x="872.0" y="148.0" type="line" smooth="yes"/>
      <point x="820.0" y="44.0"/>
      <point x="778.0" y="14.0"/>
      <point x="642.0" y="14.0" type="curve" smooth="yes"/>
      <point x="210.0" y="14.0" type="line"/>
      <point x="130.0" y="26.0" type="line"/>
    </contour>
  </outline>
</glyph>
<glyph name="b" format="2">
  <advance width="852"/>
  <unicode hex="0062"/>
  <outline>
    <contour>
      <point x="156.0" y="1422.0" type="line" smooth="yes"/>
      <point x="156.0" y="1426.0"/>
      <point x="154.0" y="1430.0"/>
      <point x="150.0" y="1430.0" type="curve" smooth="yes"/>
      <point x="148.0" y="1430.0"/>
      <point x="146.0" y="1430.0"/>
      <point x="140.0" y="1428.0" type="curve" smooth="yes"/>
      <point x="-8.0" y="1386.0" type="line" smooth="yes"/>
      <point x="-12.0" y="1384.0"/>
      <point x="-14.0" y="1384.0"/>
      <point x="-14.0" y="1380.0" type="curve" smooth="yes"/>
      <point x="-14.0" y="1378.0"/>
      <point x="-12.0" y="1376.0"/>
      <point x="-10.0" y="1376.0" type="curve" smooth="yes"/>
      <point x="94.0" y="1376.0" type="line" smooth="yes"/>
      <point x="100.0" y="1376.0"/>
      <point x="102.0" y="1372.0"/>
      <point x="102.0" y="1368.0" type="curve" smooth="yes"/>
      <point x="102.0" y="2.0" type="line" smooth="yes"/>
      <point x="102.0" y="-2.0"/>
      <point x="104.0" y="-4.0"/>
      <point x="106.0" y="-4.0" type="curve" smooth="yes"/>
      <point x="110.0" y="-4.0"/>
      <point x="110.0" y="-2.0"/>
      <point x="112.0" y="2.0" type="curve" smooth="yes"/>
      <point x="156.0" y="104.0" type="line"/>
    </contour>
    <contour>
      <point x="148.0" y="698.0" type="line"/>
      <point x="248.0" y="806.0"/>
      <point x="356.0" y="844.0"/>
      <point x="438.0" y="844.0" type="curve" smooth="yes"/>
      <point x="622.0" y="844.0"/>
      <point x="758.0" y="682.0"/>
      <point x="758.0" y="432.0" type="curve" smooth="yes"/>
      <point x="758.0" y="158.0"/>
      <point x="598.0" y="-10.0"/>
      <point x="416.0" y="-10.0" type="curve" smooth="yes"/>
      <point x="278.0" y="-10.0"/>
      <point x="172.0" y="66.0"/>
      <point x="112.0" y="170.0" type="curve"/>
      <point x="104.0" y="166.0" type="line"/>
      <point x="170.0" y="62.0"/>
      <point x="278.0" y="-20.0"/>
      <point x="422.0" y="-20.0" type="curve" smooth="yes"/>
      <point x="652.0" y="-20.0"/>
      <point x="812.0" y="164.0"/>
      <point x="812.0" y="442.0" type="curve" smooth="yes"/>
      <point x="812.0" y="698.0"/>
      <point x="652.0" y="870.0"/>
      <point x="460.0" y="870.0" type="curve" smooth="yes"/>
      <point x="356.0" y="870.0"/>
      <point x="270.0" y="836.0"/>
      <point x="144.0" y="702.0" type="curve"/>
    </contour>
  </outline>
</glyph>
<glyph name="c" format="2">
  <advance width="726"/>
  <unicode hex="0063"/>
  <anchor x="440.0" y="974.0" name="center"/>
  <outline>
    <contour>
      <point x="690.0" y="740.0" type="curve" smooth="yes"/>
      <point x="690.0" y="808.0"/>
      <point x="596.0" y="872.0"/>
      <point x="456.0" y="872.0" type="curve" smooth="yes"/>
      <point x="232.0" y="872.0"/>
      <point x="52.0" y="670.0"/>
      <point x="52.0" y="398.0" type="curve" smooth="yes"/>
      <point x="52.0" y="152.0"/>
      <point x="188.0" y="-20.0"/>
      <point x="400.0" y="-20.0" type="curve" smooth="yes"/>
      <point x="556.0" y="-20.0"/>
      <point x="660.0" y="86.0"/>
      <point x="688.0" y="184.0" type="curve" smooth="yes"/>
      <point x="690.0" y="182.0"/>
      <point x="694.0" y="176.0"/>
      <point x="698.0" y="176.0" type="curve" smooth="yes"/>
      <point x="698.0" y="176.0"/>
      <point x="698.0" y="172.0"/>
      <point x="706.0" y="178.0" type="curve" smooth="yes"/>
      <point x="658.0" y="64.0"/>
      <point x="558.0" y="8.0"/>
      <point x="440.0" y="8.0" type="curve" smooth="yes"/>
      <point x="264.0" y="8.0"/>
      <point x="120.0" y="164.0"/>
      <point x="120.0" y="458.0" type="curve" smooth="yes"/>
      <point x="120.0" y="708.0"/>
      <point x="258.0" y="870.0"/>
      <point x="422.0" y="870.0" type="curve" smooth="yes"/>
      <point x="528.0" y="870.0"/>
      <point x="590.0" y="824.0"/>
      <point x="590.0" y="762.0" type="curve" smooth="yes"/>
      <point x="590.0" y="736.0" type="line" smooth="yes"/>
      <point x="590.0" y="700.0"/>
      <point x="610.0" y="678.0"/>
      <point x="636.0" y="678.0" type="curve" smooth="yes"/>
      <point x="664.0" y="678.0"/>
      <point x="690.0" y="704.0"/>
    </contour>
  </outline>
</glyph>
<glyph name="d" format="2">
  <advance width="906"/>
  <unicode hex="0064"/>
  <outline>
    <contour>
      <point x="752" y="1422" type="line" smooth="yes"/>
      <point x="752" y="1426"/>
      <point x="750" y="1430"/>
      <point x="746" y="1430" type="curve" smooth="yes"/>
      <point x="744" y="1430"/>
      <point x="742" y="1430"/>
      <point x="736" y="1428" type="curve" smooth="yes"/>
      <point x="588" y="1386" type="line" smooth="yes"/>
      <point x="584" y="1384"/>
      <point x="582" y="1384"/>
      <point x="582" y="1380" type="curve" smooth="yes"/>
      <point x="582" y="1378"/>
      <point x="584" y="1376"/>
      <point x="586" y="1376" type="curve" smooth="yes"/>
      <point x="690" y="1376" type="line" smooth="yes"/>
      <point x="696" y="1376"/>
      <point x="698" y="1372"/>
      <point x="698" y="1368" type="curve" smooth="yes"/>
      <point x="698" y="142" type="line"/>
      <point x="698" y="40" type="line"/>
      <point x="698.0" y="10"/>
      <point x="709.0" y="0"/>
      <point x="728" y="0" type="curve" smooth="yes"/>
      <point x="858" y="0" type="line" smooth="yes"/>
      <point x="862" y="0"/>
      <point x="864" y="2"/>
      <point x="864" y="4" type="curve" smooth="yes"/>
      <point x="864" y="8"/>
      <point x="862" y="10"/>
      <point x="856" y="10" type="curve" smooth="yes"/>
      <point x="776" y="20" type="line" smooth="yes"/>
      <point x="760" y="22"/>
      <point x="752" y="30"/>
      <point x="752" y="42" type="curve" smooth="yes"/>
    </contour>
    <contour>
      <point x="704.0" y="152.0" type="line"/>
      <point x="604.0" y="44.0"/>
      <point x="496.0" y="6.0"/>
      <point x="414.0" y="6.0" type="curve" smooth="yes"/>
      <point x="230.0" y="6.0"/>
      <point x="94.0" y="168.0"/>
      <point x="94.0" y="418.0" type="curve" smooth="yes"/>
      <point x="94.0" y="692.0"/>
      <point x="250.0" y="860.0"/>
      <point x="428.0" y="860.0" type="curve" smooth="yes"/>
      <point x="570.0" y="860.0"/>
      <point x="680.0" y="784.0"/>
      <point x="740.0" y="680.0" type="curve"/>
      <point x="748.0" y="684.0" type="line"/>
      <point x="682.0" y="788.0"/>
      <point x="574.0" y="870.0"/>
      <point x="430.0" y="870.0" type="curve" smooth="yes"/>
      <point x="200.0" y="870.0"/>
      <point x="40.0" y="686.0"/>
      <point x="40.0" y="408.0" type="curve" smooth="yes"/>
      <point x="40.0" y="152.0"/>
      <point x="200.0" y="-20.0"/>
      <point x="392.0" y="-20.0" type="curve" smooth="yes"/>
      <point x="496.0" y="-20.0"/>
      <point x="582.0" y="14.0"/>
      <point x="708.0" y="148.0" type="curve"/>
    </contour>
  </outline>
</glyph>
<glyph name="f" format="2">
  <advance width="414"/>
  <unicode hex="0066"/>
  <outline>
    <contour>
      <point x="224.0" y="42.0" type="curve" smooth="yes"/>
      <point x="224.0" y="838.0" type="line"/>
      <point x="406.0" y="838.0" type="line" smooth="yes"/>
      <point x="414.0" y="838.0"/>
      <point x="418.0" y="842.0"/>
      <point x="418.0" y="846.0" type="curve" smooth="yes"/>
      <point x="418.0" y="848.0"/>
      <point x="416.0" y="850.0"/>
      <point x="412.0" y="850.0" type="curve"/>
      <point x="218.0" y="850.0" type="line"/>
      <point x="224.0" y="844.0" type="line" smooth="yes"/>
      <point x="224.0" y="866.0" type="line" smooth="yes"/>
      <point x="224.0" y="983.0645161290322"/>
      <point x="118.0" y="1119.9553072625697"/>
      <point x="118.0" y="1248.0" type="curve" smooth="yes"/>
      <point x="118.0" y="1351.5698924731182"/>
      <point x="184.0" y="1420.0"/>
      <point x="282.0" y="1420.0" type="curve" smooth="yes"/>
      <point x="348.0" y="1420.0"/>
      <point x="380.0" y="1386.7027027027027"/>
      <point x="380.0" y="1332.0" type="curve" smooth="yes"/>
      <point x="380.0" y="1298.0" type="line" smooth="yes"/>
      <point x="380.0" y="1266.0"/>
      <point x="398.0" y="1254.0"/>
      <point x="418.0" y="1254.0" type="curve" smooth="yes"/>
      <point x="438.0" y="1254.0"/>
      <point x="454.0" y="1272.0"/>
      <point x="454.0" y="1304.0" type="curve" smooth="yes"/>
      <point x="454.0" y="1370.0"/>
      <point x="394.0" y="1430.0"/>
      <point x="292.0" y="1430.0" type="curve" smooth="yes"/>
      <point x="178.0" y="1430.0"/>
      <point x="90.0" y="1342.0"/>
      <point x="90.0" y="1218.0" type="curve" smooth="yes"/>
      <point x="90.0" y="1082.0714285714287"/>
      <point x="174.0" y="980.0"/>
      <point x="174.0" y="872.0" type="curve" smooth="yes"/>
      <point x="174.0" y="846.0" type="line"/>
      <point x="180.0" y="850.0" type="line"/>
      <point x="16.0" y="850.0" type="line" smooth="yes"/>
      <point x="14.0" y="850.0"/>
      <point x="12.0" y="848.0"/>
      <point x="12.0" y="846.0" type="curve" smooth="yes"/>
      <point x="12.0" y="842.0"/>
      <point x="14.0" y="840.0"/>
      <point x="18.0" y="840.0" type="curve" smooth="yes"/>
      <point x="154.0" y="824.0" type="line" smooth="yes"/>
      <point x="166.0" y="822.0"/>
      <point x="170.0" y="814.0"/>
      <point x="170.0" y="804.0" type="curve" smooth="yes"/>
      <point x="170.0" y="40.0" type="line" smooth="yes"/>
      <point x="170.0" y="30.0"/>
      <point x="162.0" y="22.0"/>
      <point x="146.0" y="20.0" type="curve" smooth="yes"/>
      <point x="62.0" y="10.0" type="line" smooth="yes"/>
      <point x="58.0" y="10.0"/>
      <point x="54.0" y="8.0"/>
      <point x="54.0" y="4.0" type="curve" smooth="yes"/>
      <point x="54.0" y="2.0"/>
      <point x="56.0" y="0.0"/>
      <point x="58.0" y="0.0" type="curve" smooth="yes"/>
      <point x="380.0" y="0.0" type="line" smooth="yes"/>
      <point x="384.0" y="0.0"/>
      <point x="386.0" y="2.0"/>
      <point x="386.0" y="4.0" type="curve"/>
      <point x="386.0" y="8.0"/>
      <point x="384.0" y="10.0"/>
      <point x="378.0" y="10.0" type="curve" smooth="yes"/>
      <point x="248.0" y="20.0" type="line" smooth="yes"/>
      <point x="232.0" y="22.0"/>
      <point x="224.0" y="30.0"/>
    </contour>
  </outline>
</glyph>
<glyph name="g" format="2">
  <advance width="828"/>
  <unicode hex="0067"/>
  <outline>
    <contour>
      <point x="582.0" y="-52.0" type="curve" smooth="yes"/>
      <point x="762.0" y="-120.0"/>
      <point x="804.0" y="-178.0"/>
      <point x="804.0" y="-266.0" type="curve" smooth="yes"/>
      <point x="804.0" y="-398.0"/>
      <point x="666.0" y="-494.0"/>
      <point x="432.0" y="-494.0" type="curve" smooth="yes"/>
      <point x="160.0" y="-494.0"/>
      <point x="20.0" y="-388.0"/>
      <point x="20.0" y="-254.0" type="curve" smooth="yes"/>
      <point x="20.0" y="-146.0"/>
      <point x="120.0" y="-46.0"/>
      <point x="386.0" y="0.0" type="curve"/>
      <point x="390.0" y="-12.0" type="line"/>
      <point x="170.0" y="-44.0"/>
      <point x="60.0" y="-136.0"/>
      <point x="60.0" y="-252.0" type="curve" smooth="yes"/>
      <point x="60.0" y="-388.0"/>
      <point x="174.0" y="-484.0"/>
      <point x="442.0" y="-484.0" type="curve" smooth="yes"/>
      <point x="654.0" y="-484.0"/>
      <point x="762.0" y="-404.0"/>
      <point x="762.0" y="-282.0" type="curve" smooth="yes"/>
      <point x="762.0" y="-210.0"/>
      <point x="718.0" y="-156.0"/>
      <point x="528.0" y="-90.0" type="curve" smooth="yes"/>
      <point x="274.0" y="-2.0"/>
      <point x="212.0" y="46.0"/>
      <point x="212.0" y="108.0" type="curve" smooth="yes"/>
      <point x="212.0" y="160.0"/>
      <point x="244.0" y="196.0"/>
      <point x="350.0" y="244.0" type="curve"/>
      <point x="346.0" y="234.0" type="line"/>
      <point x="294.0" y="210.0"/>
      <point x="260.0" y="178.0"/>
      <point x="260.0" y="144.0" type="curve" smooth="yes"/>
      <point x="260.0" y="88.0"/>
      <point x="294.0" y="56.0"/>
    </contour>
    <contour>
      <point x="580.0" y="812.0" type="line" smooth="yes"/>
      <point x="588.0" y="820.0" type="line" smooth="yes"/>
      <point x="642.0" y="874.0"/>
      <point x="686.0" y="914.0"/>
      <point x="742.0" y="914.0" type="curve" smooth="yes"/>
      <point x="792.0" y="914.0"/>
      <point x="838.0" y="878.0"/>
      <point x="838.0" y="836.0" type="curve" smooth="yes"/>
      <point x="838.0" y="810.0"/>
      <point x="826.0" y="792.0"/>
      <point x="800.0" y="792.0" type="curve" smooth="yes"/>
      <point x="750.0" y="792.0"/>
      <point x="732.0" y="882.0"/>
      <point x="694.0" y="882.0" type="curve" smooth="yes"/>
      <point x="660.0" y="882.0"/>
      <point x="628.0" y="846.0"/>
      <point x="588.0" y="806.0" type="curve"/>
    </contour>
    <contour>
      <point x="726.0" y="552.0" type="curve" smooth="yes"/>
      <point x="726.0" y="356.0"/>
      <point x="578.0" y="224.0"/>
      <point x="392.0" y="224.0" type="curve" smooth="yes"/>
      <point x="216.0" y="224.0"/>
      <point x="80.0" y="360.0"/>
      <point x="80.0" y="540.0" type="curve" smooth="yes"/>
      <point x="80.0" y="730.0"/>
      <point x="204.0" y="872.0"/>
      <point x="408.0" y="872.0" type="curve" smooth="yes"/>
      <point x="588.0" y="872.0"/>
      <point x="726.0" y="736.0"/>
    </contour>
    <contour>
      <point x="380.0" y="858.0" type="curve" smooth="yes"/>
      <point x="238.0" y="858.0"/>
      <point x="130.0" y="736.0"/>
      <point x="130.0" y="580.0" type="curve" smooth="yes"/>
      <point x="130.0" y="392.0"/>
      <point x="252.0" y="238.0"/>
      <point x="424.0" y="238.0" type="curve" smooth="yes"/>
      <point x="574.0" y="238.0"/>
      <point x="676.0" y="354.0"/>
      <point x="676.0" y="512.0" type="curve" smooth="yes"/>
      <point x="676.0" y="710.0"/>
      <point x="564.0" y="858.0"/>
    </contour>
  </outline>
</glyph>
<glyph name="i" format="2">
  <advance width="334"/>
  <unicode hex="0069"/>
  <outline>
    <contour>
      <point x="202.0" y="852.0" type="line" smooth="yes"/>
      <point x="202.0" y="856.0"/>
      <point x="200.0" y="860.0"/>
      <point x="196.0" y="860.0" type="curve" smooth="yes"/>
      <point x="194.75" y="860.0"/>
      <point x="192.0" y="860.0"/>
      <point x="186.0" y="858.0" type="curve" smooth="yes"/>
      <point x="38.0" y="816.0" type="line" smooth="yes"/>
      <point x="34.0" y="814.0"/>
      <point x="32.0" y="814.0"/>
      <point x="32.0" y="810.0" type="curve" smooth="yes"/>
      <point x="32.0" y="808.0"/>
      <point x="34.0" y="806.0"/>
      <point x="36.0" y="806.0" type="curve" smooth="yes"/>
      <point x="140.0" y="806.0" type="line" smooth="yes"/>
      <point x="146.0" y="806.0"/>
      <point x="148.0" y="802.0"/>
      <point x="148.0" y="798.0" type="curve" smooth="yes"/>
      <point x="148.0" y="40.0" type="line" smooth="yes"/>
      <point x="148.0" y="30.0"/>
      <point x="140.0" y="22.0"/>
      <point x="124.0" y="20.0" type="curve" smooth="yes"/>
      <point x="38.0" y="8.0" type="line" smooth="yes"/>
      <point x="33.64139167017315" y="7.391822093512532"/>
      <point x="32.0" y="5.0"/>
      <point x="32.0" y="4.0" type="curve" smooth="yes"/>
      <point x="32.0" y="2.0"/>
      <point x="34.0" y="0.0"/>
      <point x="36.0" y="0.0" type="curve" smooth="yes"/>
      <point x="308.0" y="0.0" type="line" smooth="yes"/>
      <point x="312.0" y="0.0"/>
      <point x="314.0" y="2.0"/>
      <point x="314.0" y="4.0" type="curve" smooth="yes"/>
      <point x="314.0" y="8.0"/>
      <point x="312.0" y="10.0"/>
      <point x="306.0" y="10.0" type="curve" smooth="yes"/>
      <point x="226.0" y="20.0" type="line" smooth="yes"/>
      <point x="210.0" y="22.0"/>
      <point x="202.0" y="30.0"/>
      <point x="202.0" y="42.0" type="curve" smooth="yes"/>
    </contour>
    <contour>
      <point x="162.0" y="1040.0" type="curve" smooth="yes"/>
      <point x="196.0" y="1040.0"/>
      <point x="226.0" y="1070.0"/>
      <point x="226.0" y="1102.0" type="curve" smooth="yes"/>
      <point x="226.0" y="1136.0"/>
      <point x="196.0" y="1166.0"/>
      <point x="162.0" y="1166.0" type="curve" smooth="yes"/>
      <point x="130.0" y="1166.0"/>
      <point x="100.0" y="1136.0"/>
      <point x="100.0" y="1102.0" type="curve" smooth="yes"/>
      <point x="100.0" y="1070.0"/>
      <point x="130.0" y="1040.0"/>
    </contour>
  </outline>
</glyph>
<glyph name="k" format="2">
  <advance width="898"/>
  <unicode hex="006B"/>
  <outline>
    <contour>
      <point x="44.0" y="0.0" type="curve" smooth="yes"/>
      <point x="316.0" y="0.0" type="line" smooth="yes"/>
      <point x="320.0" y="0.0"/>
      <point x="322.0" y="2.0"/>
      <point x="322.0" y="4.0" type="curve" smooth="yes"/>
      <point x="322.0" y="8.0"/>
      <point x="320.0" y="10.0"/>
      <point x="314.0" y="10.0" type="curve" smooth="yes"/>
      <point x="234.0" y="20.0" type="line" smooth="yes"/>
      <point x="218.0" y="22.0"/>
      <point x="210.0" y="30.0"/>
      <point x="210.0" y="42.0" type="curve" smooth="yes"/>
      <point x="210.0" y="1422.0" type="line" smooth="yes"/>
      <point x="210.0" y="1426.0"/>
      <point x="208.0" y="1430.0"/>
      <point x="204.0" y="1430.0" type="curve" smooth="yes"/>
      <point x="202.0" y="1430.0"/>
      <point x="200.0" y="1430.0"/>
      <point x="194.0" y="1428.0" type="curve" smooth="yes"/>
      <point x="46.0" y="1386.0" type="line" smooth="yes"/>
      <point x="42.0" y="1384.0"/>
      <point x="40.0" y="1384.0"/>
      <point x="40.0" y="1380.0" type="curve" smooth="yes"/>
      <point x="40.0" y="1378.0"/>
      <point x="42.0" y="1376.0"/>
      <point x="44.0" y="1376.0" type="curve" smooth="yes"/>
      <point x="148.0" y="1376.0" type="line" smooth="yes"/>
      <point x="154.0" y="1376.0"/>
      <point x="156.0" y="1372.0"/>
      <point x="156.0" y="1368.0" type="curve" smooth="yes"/>
      <point x="156.0" y="40.0" type="line" smooth="yes"/>
      <point x="156.0" y="30.0"/>
      <point x="148.0" y="22.0"/>
      <point x="132.0" y="20.0" type="curve" smooth="yes"/>
      <point x="54.0" y="12.0" type="line" smooth="yes"/>
      <point x="44.0" y="10.0"/>
      <point x="40.0" y="6.0"/>
      <point x="40.0" y="4.0" type="curve" smooth="yes"/>
      <point x="40.0" y="2.0"/>
      <point x="42.0" y="0.0"/>
    </contour>
    <contour>
      <point x="200.0" y="392.0" type="line"/>
      <point x="198.0" y="380.0" type="line"/>
      <point x="638.0" y="746.0" type="line" smooth="yes"/>
      <point x="693" y="792"/>
      <point x="757" y="812"/>
      <point x="830.0" y="840.0" type="curve" smooth="yes"/>
      <point x="843.0" y="845.0"/>
      <point x="844.0" y="843.0"/>
      <point x="844.0" y="848.0" type="curve" smooth="yes"/>
      <point x="844" y="850"/>
      <point x="842.0" y="852.0"/>
      <point x="820.0" y="852.0" type="curve" smooth="yes"/>
      <point x="600.0" y="856.0" type="line" smooth="yes"/>
      <point x="586.0" y="856.0"/>
      <point x="580.0" y="854.0"/>
      <point x="580.0" y="850.0" type="curve" smooth="yes"/>
      <point x="580.0" y="848.0"/>
      <point x="588.0" y="846.0"/>
      <point x="602.0" y="848.0" type="curve" smooth="yes"/>
      <point x="660.0" y="842.0"/>
      <point x="668.0" y="828.0"/>
      <point x="668.0" y="808.0" type="curve" smooth="yes"/>
      <point x="668.0" y="788.0"/>
      <point x="648.0" y="766.0"/>
      <point x="590.0" y="718.0" type="curve" smooth="yes"/>
    </contour>
    <contour>
      <point x="448.0" y="554.0" type="line"/>
      <point x="392.0" y="522.0" type="line"/>
      <point x="668.0" y="94.0" type="line" smooth="yes"/>
      <point x="680.0" y="78.0"/>
      <point x="686.0" y="62.0"/>
      <point x="686.0" y="44.0" type="curve" smooth="yes"/>
      <point x="686.0" y="12.0"/>
      <point x="666.0" y="2.0"/>
      <point x="614.0" y="2.0" type="curve" smooth="yes"/>
      <point x="592.0" y="10.0"/>
      <point x="584.0" y="4.0"/>
      <point x="584.0" y="-2.0" type="curve" smooth="yes"/>
      <point x="584.0" y="0.0"/>
      <point x="592.0" y="0.0"/>
      <point x="602.0" y="0.0" type="curve" smooth="yes"/>
      <point x="916.0" y="0.0" type="line" smooth="yes"/>
      <point x="924.0" y="0.0"/>
      <point x="920.0" y="-2.0"/>
      <point x="920.0" y="-2.0" type="curve" smooth="yes"/>
      <point x="920.0" y="2.0"/>
      <point x="912.0" y="-4.0"/>
      <point x="900.0" y="-8.0" type="curve" smooth="yes"/>
      <point x="846.0" y="-4.0"/>
      <point x="816.0" y="20.0"/>
      <point x="774.0" y="84.0" type="curve" smooth="yes"/>
    </contour>
  </outline>
</glyph>
<glyph name="n" format="2">
  <advance width="884"/>
  <unicode hex="006E"/>
  <outline>
    <contour>
      <point x="210.0" y="852.0" type="line" smooth="yes"/>
      <point x="210.0" y="856.0"/>
      <point x="208.0" y="860.0"/>
      <point x="204.0" y="860.0" type="curve" smooth="yes"/>
      <point x="202.75" y="860.0"/>
      <point x="200.0" y="860.0"/>
      <point x="194.0" y="858.0" type="curve" smooth="yes"/>
      <point x="46.0" y="816.0" type="line" smooth="yes"/>
      <point x="42.0" y="814.0"/>
      <point x="40.0" y="814.0"/>
      <point x="40.0" y="810.0" type="curve" smooth="yes"/>
      <point x="40.0" y="808.0"/>
      <point x="42.0" y="806.0"/>
      <point x="44.0" y="806.0" type="curve" smooth="yes"/>
      <point x="148.0" y="806.0" type="line" smooth="yes"/>
      <point x="154.0" y="806.0"/>
      <point x="156.0" y="802.0"/>
      <point x="156.0" y="798.0" type="curve" smooth="yes"/>
      <point x="156.0" y="40.0" type="line" smooth="yes"/>
      <point x="156.0" y="30.0"/>
      <point x="148.0" y="22.0"/>
      <point x="132.0" y="20.0" type="curve" smooth="yes"/>
      <point x="46.0" y="8.0" type="line" smooth="yes"/>
      <point x="41.64139167017315" y="7.391822093512532"/>
      <point x="40.0" y="5.0"/>
      <point x="40.0" y="4.0" type="curve" smooth="yes"/>
      <point x="40.0" y="2.0"/>
      <point x="42.0" y="0.0"/>
      <point x="44.0" y="0.0" type="curve" smooth="yes"/>
      <point x="316.0" y="0.0" type="line" smooth="yes"/>
      <point x="320.0" y="0.0"/>
      <point x="322.0" y="2.0"/>
      <point x="322.0" y="4.0" type="curve" smooth="yes"/>
      <point x="322.0" y="8.0"/>
      <point x="320.0" y="10.0"/>
      <point x="314.0" y="10.0" type="curve" smooth="yes"/>
      <point x="234.0" y="20.0" type="line" smooth="yes"/>
      <point x="218.0" y="22.0"/>
      <point x="210.0" y="30.0"/>
      <point x="210.0" y="42.0" type="curve" smooth="yes"/>
    </contour>
    <contour>
      <point x="202.0" y="698.0" type="line" smooth="yes"/>
      <point x="232.0" y="726.0" type="line" smooth="yes"/>
      <point x="326.0" y="814.0"/>
      <point x="398.0" y="844.0"/>
      <point x="456.0" y="844.0" type="curve" smooth="yes"/>
      <point x="556.0" y="844.0"/>
      <point x="618.0" y="776.0"/>
      <point x="640.0" y="636.0" type="curve" smooth="yes"/>
      <point x="730.0" y="52.0" type="line" smooth="yes"/>
      <point x="732.0" y="36.0"/>
      <point x="724.0" y="18.0"/>
      <point x="698.0" y="16.0" type="curve" smooth="yes"/>
      <point x="634.0" y="10.0" type="line" smooth="yes"/>
      <point x="628.0" y="10.0"/>
      <point x="624.0" y="8.0"/>
      <point x="624.0" y="4.0" type="curve" smooth="yes"/>
      <point x="624.0" y="2.0"/>
      <point x="628.0" y="0.0"/>
      <point x="632.0" y="0.0" type="curve" smooth="yes"/>
      <point x="862.0" y="0.0" type="line" smooth="yes"/>
      <point x="866.0" y="0.0"/>
      <point x="868.0" y="2.0"/>
      <point x="868.0" y="4.0" type="curve" smooth="yes"/>
      <point x="868.0" y="6.0"/>
      <point x="866.0" y="8.0"/>
      <point x="862.0" y="8.0" type="curve" smooth="yes"/>
      <point x="824.0" y="12.0" type="line" smooth="yes"/>
      <point x="798.0" y="14.0"/>
      <point x="788.0" y="30.0"/>
      <point x="784.0" y="52.0" type="curve" smooth="yes"/>
      <point x="694.0" y="640.0" type="line" smooth="yes"/>
      <point x="670.0" y="792.0"/>
      <point x="590.0" y="870.0"/>
      <point x="484.0" y="870.0" type="curve" smooth="yes"/>
      <point x="420.0" y="870.0"/>
      <point x="354.0" y="848.0"/>
      <point x="228.0" y="730.0" type="curve" smooth="yes"/>
      <point x="198.0" y="702.0" type="line"/>
    </contour>
  </outline>
</glyph>
<glyph name="o" format="2">
  <advance width="884"/>
  <unicode hex="006F"/>
  <outline>
    <contour>
      <point x="462.0" y="870.0" type="curve" smooth="yes"/>
      <point x="200.0" y="870.0"/>
      <point x="40.0" y="669.4285714285713"/>
      <point x="40.0" y="402.0" type="curve" smooth="yes"/>
      <point x="40.0" y="161.4027149321267"/>
      <point x="206.00000000000003" y="-20.0"/>
      <point x="416.0" y="-20.0" type="curve" smooth="yes"/>
      <point x="656.0" y="-20.0"/>
      <point x="844.0" y="166.05429864253392"/>
      <point x="844.0" y="442.0" type="curve" smooth="yes"/>
      <point x="844.0" y="688.4821428571429"/>
      <point x="676.0" y="870.0"/>
    </contour>
    <contour>
      <point x="456.0" y="-8.0" type="curve" smooth="yes"/>
      <point x="241.55434782608697" y="-8.0"/>
      <point x="94.0" y="200.91666666666669"/>
      <point x="94.0" y="452.0" type="curve" smooth="yes"/>
      <point x="94.0" y="681.2371134020618"/>
      <point x="233.4941176470588" y="860.0"/>
      <point x="428.0" y="860.0" type="curve" smooth="yes"/>
      <point x="652.0" y="860.0"/>
      <point x="790.0" y="660.5245901639344"/>
      <point x="790.0" y="392.0" type="curve" smooth="yes"/>
      <point x="790.0" y="158.3157894736842"/>
      <point x="654.0" y="-8.0"/>
    </contour>
  </outline>
</glyph>
<glyph name="t" format="2">
  <advance width="490"/>
  <unicode hex="0074"/>
  <outline>
    <contour>
      <point x="140.0" y="826.0" type="line" smooth="yes"/>
      <point x="152.0" y="824.0"/>
      <point x="156.0" y="816.0"/>
      <point x="156.0" y="806.0" type="curve" smooth="yes"/>
      <point x="156.0" y="128.0" type="line" smooth="yes"/>
      <point x="156.0" y="32.0"/>
      <point x="217.1948051948052" y="-14.0"/>
      <point x="308.0" y="-14.0" type="curve" smooth="yes"/>
      <point x="366.0" y="-14.0"/>
      <point x="412.0" y="14.0"/>
      <point x="446.0" y="80.0" type="curve" smooth="yes"/>
      <point x="448.0" y="86.0"/>
      <point x="444.0" y="88.0"/>
      <point x="442.0" y="84.0" type="curve" smooth="yes"/>
      <point x="418.0" y="34.0"/>
      <point x="374.0" y="6.0"/>
      <point x="318.0" y="6.0" type="curve" smooth="yes"/>
      <point x="250.0" y="6.0"/>
      <point x="210.0" y="50.0"/>
      <point x="210.0" y="142.0" type="curve" smooth="yes"/>
      <point x="210.0" y="1032.0" type="line" smooth="yes"/>
      <point x="210.0" y="1034.0"/>
      <point x="208.0" y="1036.0"/>
      <point x="206.0" y="1036.0" type="curve" smooth="yes"/>
      <point x="202.0" y="1036.0"/>
      <point x="202.0" y="1034.0"/>
      <point x="200.0" y="1030.0" type="curve" smooth="yes"/>
      <point x="156.0" y="864.0" type="line" smooth="yes"/>
      <point x="154.0" y="854.0"/>
      <point x="148.0" y="850.0"/>
      <point x="132.0" y="850.0" type="curve" smooth="yes"/>
      <point x="2.0" y="850.0" type="line" smooth="yes"/>
      <point x="0.0" y="850.0"/>
      <point x="-2.0" y="848.0"/>
      <point x="-2.0" y="846.0" type="curve" smooth="yes"/>
      <point x="-2.0" y="842.0"/>
      <point x="0.0" y="840.0"/>
      <point x="4.0" y="840.0" type="curve" smooth="yes"/>
    </contour>
    <contour>
      <point x="182.0" y="838.0" type="line"/>
      <point x="428.0" y="838.0" type="line" smooth="yes"/>
      <point x="438.0" y="838.0"/>
      <point x="444.0" y="840.0"/>
      <point x="444.0" y="844.0" type="curve" smooth="yes"/>
      <point x="444.0" y="848.0"/>
      <point x="442.0" y="850.0"/>
      <point x="436.0" y="850.0" type="curve" smooth="yes"/>
      <point x="182.0" y="850.0" type="line"/>
    </contour>
  </outline>
</glyph>
<glyph name="u" format="2">
  <advance width="922"/>
  <unicode hex="0075"/>
  <anchor x="472.0" y="972.0" name="center"/>
  <outline>
    <contour>
      <point x="714" y="40" type="line"/>
      <point x="714.0" y="12"/>
      <point x="725" y="0"/>
      <point x="744" y="0" type="curve" smooth="yes"/>
      <point x="874" y="0" type="line" smooth="yes"/>
      <point x="878" y="0"/>
      <point x="880" y="2"/>
      <point x="880" y="4" type="curve"/>
      <point x="880" y="8"/>
      <point x="878" y="10"/>
      <point x="872" y="10" type="curve" smooth="yes"/>
      <point x="792" y="20" type="line" smooth="yes"/>
      <point x="776" y="22"/>
      <point x="768" y="30"/>
      <point x="768" y="42" type="curve" smooth="yes"/>
      <point x="768" y="852" type="line" smooth="yes"/>
      <point x="768" y="856"/>
      <point x="766" y="860"/>
      <point x="762" y="860" type="curve" smooth="yes"/>
      <point x="760" y="860"/>
      <point x="758" y="860"/>
      <point x="752" y="858" type="curve" smooth="yes"/>
      <point x="604" y="816" type="line" smooth="yes"/>
      <point x="600" y="814"/>
      <point x="598" y="814"/>
      <point x="598" y="810" type="curve" smooth="yes"/>
      <point x="598" y="808"/>
      <point x="600" y="806"/>
      <point x="602" y="806" type="curve" smooth="yes"/>
      <point x="706" y="806" type="line" smooth="yes"/>
      <point x="712" y="806"/>
      <point x="714" y="802"/>
      <point x="714" y="798" type="curve" smooth="yes"/>
      <point x="714" y="120" type="line"/>
    </contour>
    <contour>
      <point x="720.0" y="160.0" type="line" smooth="yes"/>
      <point x="690.0" y="132.0" type="line" smooth="yes"/>
      <point x="598.0" y="46.0"/>
      <point x="516.0" y="14.0"/>
      <point x="436.0" y="14.0" type="curve" smooth="yes"/>
      <point x="306.0" y="14.0"/>
      <point x="212.0" y="90.0"/>
      <point x="212.0" y="262.0" type="curve" smooth="yes"/>
      <point x="212.0" y="852.0" type="line" smooth="yes"/>
      <point x="212.0" y="856.0"/>
      <point x="210.0" y="860.0"/>
      <point x="206.0" y="860.0" type="curve" smooth="yes"/>
      <point x="204.0" y="860.0"/>
      <point x="202.0" y="860.0"/>
      <point x="196.0" y="858.0" type="curve" smooth="yes"/>
      <point x="46.0" y="816.0" type="line" smooth="yes"/>
      <point x="42.0" y="814.0"/>
      <point x="40.0" y="814.0"/>
      <point x="40.0" y="810.0" type="curve" smooth="yes"/>
      <point x="40.0" y="808.0"/>
      <point x="42.0" y="806.0"/>
      <point x="44.0" y="806.0" type="curve" smooth="yes"/>
      <point x="148.0" y="806.0" type="line" smooth="yes"/>
      <point x="156.0" y="806.0"/>
      <point x="158.0" y="802.0"/>
      <point x="158.0" y="798.0" type="curve" smooth="yes"/>
      <point x="158.0" y="258.0" type="line" smooth="yes"/>
      <point x="158.0" y="78.0"/>
      <point x="266.0" y="-12.0"/>
      <point x="408.0" y="-12.0" type="curve" smooth="yes"/>
      <point x="496.0" y="-12.0"/>
      <point x="572.0" y="14.0"/>
      <point x="694.0" y="128.0" type="curve" smooth="yes"/>
      <point x="724.0" y="156.0" type="line"/>
    </contour>
  </outline>
</glyph>
<glyph name="x" format="2">
  <advance width="780"/>
  <unicode hex="0078"/>
  <outline>
    <contour>
      <point x="436.0" y="392.0" type="line"/>
      <point x="216.0" y="96.0" type="line" smooth="yes"/>
      <point x="156.0" y="16.0"/>
      <point x="100.0" y="-12.0"/>
      <point x="10.0" y="-34.0" type="curve" smooth="yes"/>
      <point x="10.0" y="-32.0"/>
      <point x="0.0" y="-16.0"/>
      <point x="0.0" y="-22.0" type="curve" smooth="yes"/>
      <point x="0.0" y="-6.0"/>
      <point x="-8.0" y="0.0"/>
      <point x="-6.0" y="0.0" type="curve" smooth="yes"/>
      <point x="320.0" y="0.0" type="line" smooth="yes"/>
      <point x="322.0" y="0.0"/>
      <point x="322.0" y="0.0"/>
      <point x="322.0" y="-4.0" type="curve" smooth="yes"/>
      <point x="322.0" y="-14.0"/>
      <point x="324.0" y="-18.0"/>
      <point x="316.0" y="-20.0" type="curve" smooth="yes"/>
      <point x="270.0" y="2.0" type="line" smooth="yes"/>
      <point x="232.0" y="16.0"/>
      <point x="212.0" y="34.0"/>
      <point x="212.0" y="62.0" type="curve" smooth="yes"/>
      <point x="212.0" y="80.0"/>
      <point x="216.0" y="86.0"/>
      <point x="246.0" y="126.0" type="curve" smooth="yes"/>
      <point x="442.0" y="394.0" type="line"/>
    </contour>
    <contour>
      <point x="200" y="736" type="line" smooth="yes"/>
      <point x="186" y="754"/>
      <point x="178" y="772"/>
      <point x="178" y="786" type="curve" smooth="yes"/>
      <point x="178" y="808"/>
      <point x="192" y="820"/>
      <point x="204" y="828" type="curve" smooth="yes"/>
      <point x="228" y="846" type="line" smooth="yes"/>
      <point x="242" y="854"/>
      <point x="252" y="848"/>
      <point x="252" y="850" type="curve" smooth="yes"/>
      <point x="252" y="852"/>
      <point x="248" y="852"/>
      <point x="246" y="852" type="curve" smooth="yes"/>
      <point x="6" y="852" type="line" smooth="yes"/>
      <point x="-2" y="852"/>
      <point x="0" y="852"/>
      <point x="0" y="856" type="curve" smooth="yes"/>
      <point x="0" y="854"/>
      <point x="2" y="852"/>
      <point x="12" y="850" type="curve" smooth="yes"/>
      <point x="58" y="832"/>
      <point x="82" y="804"/>
      <point x="118" y="752" type="curve" smooth="yes"/>
      <point x="358" y="422" type="line"/>
      <point x="360" y="420" type="line"/>
      <point x="628" y="50" type="line" smooth="yes"/>
      <point x="620" y="56"/>
      <point x="638" y="54"/>
      <point x="638" y="42" type="curve" smooth="yes"/>
      <point x="638" y="34"/>
      <point x="638" y="30"/>
      <point x="626" y="28" type="curve" smooth="yes"/>
      <point x="526" y="0" type="line" smooth="yes"/>
      <point x="518" y="2"/>
      <point x="514" y="4"/>
      <point x="514" y="-2" type="curve" smooth="yes"/>
      <point x="514" y="0"/>
      <point x="520" y="0"/>
      <point x="526" y="0" type="curve" smooth="yes"/>
      <point x="776" y="0" type="line" smooth="yes"/>
      <point x="782" y="0"/>
      <point x="786" y="2"/>
      <point x="786" y="2" type="curve" smooth="yes"/>
      <point x="786" y="0"/>
      <point x="782" y="0"/>
      <point x="768" y="4" type="curve" smooth="yes"/>
      <point x="746" y="8"/>
      <point x="708" y="30"/>
      <point x="664" y="90" type="curve" smooth="yes"/>
      <point x="402" y="455" type="line"/>
      <point x="400" y="458" type="line"/>
    </contour>
    <contour>
      <point x="362.0" y="428.0" type="line"/>
      <point x="662.0" y="792.0" type="line" smooth="yes"/>
      <point x="706.0" y="844.0"/>
      <point x="738.0" y="860.0"/>
      <point x="776.0" y="878.0" type="curve" smooth="yes"/>
      <point x="776.0" y="884.0"/>
      <point x="782.0" y="874.0"/>
      <point x="782.0" y="868.0" type="curve" smooth="yes"/>
      <point x="782.0" y="858.0"/>
      <point x="788.0" y="852.0"/>
      <point x="782.0" y="852.0" type="curve" smooth="yes"/>
      <point x="516.0" y="852.0" type="line" smooth="yes"/>
      <point x="512.0" y="852.0"/>
      <point x="508.0" y="852.0"/>
      <point x="508.0" y="852.0" type="curve" smooth="yes"/>
      <point x="508.0" y="852.0"/>
      <point x="520.0" y="858.0"/>
      <point x="522.0" y="860.0" type="curve" smooth="yes"/>
      <point x="576.0" y="832.0" type="line" smooth="yes"/>
      <point x="602.0" y="820.0"/>
      <point x="612.0" y="802.0"/>
      <point x="612.0" y="778.0" type="curve" smooth="yes"/>
      <point x="612.0" y="744.0"/>
      <point x="594.0" y="720.0"/>
      <point x="576.0" y="698.0" type="curve" smooth="yes"/>
      <point x="378.0" y="456.0" type="line"/>
    </contour>
  </outline>
</glyph>
<glyph name="y" format="2">
  <advance width="788"/>
  <unicode hex="0079"/>
  <anchor x="424.0" y="948.0" name="center"/>
  <outline>
    <contour>
      <point x="412" y="64" type="line"/>
      <point x="126" y="796" type="line" smooth="yes"/>
      <point x="121" y="809"/>
      <point x="119" y="831"/>
      <point x="152" y="840" type="curve" smooth="yes"/>
      <point x="248" y="866" type="line" smooth="yes"/>
      <point x="264" y="866"/>
      <point x="268" y="862"/>
      <point x="268" y="856" type="curve" smooth="yes"/>
      <point x="268" y="854"/>
      <point x="266" y="850"/>
      <point x="256" y="850" type="curve" smooth="yes"/>
      <point x="20" y="850" type="line" smooth="yes"/>
      <point x="4" y="850"/>
      <point x="-6" y="850"/>
      <point x="-6" y="854" type="curve" smooth="yes"/>
      <point x="-6" y="852"/>
      <point x="-4" y="852"/>
      <point x="-6" y="854" type="curve" smooth="yes"/>
      <point x="38" y="842"/>
      <point x="60" y="816"/>
      <point x="82" y="758" type="curve" smooth="yes"/>
      <point x="382" y="-30" type="line"/>
    </contour>
    <contour>
      <point x="226" y="-372" type="line" smooth="yes"/>
      <point x="206" y="-424"/>
      <point x="186" y="-434"/>
      <point x="148" y="-434" type="curve" smooth="yes"/>
      <point x="122" y="-434"/>
      <point x="110" y="-414"/>
      <point x="84" y="-372" type="curve" smooth="yes"/>
      <point x="76" y="-368" type="line" smooth="yes"/>
      <point x="52" y="-340"/>
      <point x="42" y="-336"/>
      <point x="32" y="-336" type="curve" smooth="yes"/>
      <point x="-8" y="-336"/>
      <point x="-28" y="-360"/>
      <point x="-28" y="-386" type="curve" smooth="yes"/>
      <point x="-28" y="-446"/>
      <point x="20" y="-490"/>
      <point x="88" y="-490" type="curve" smooth="yes"/>
      <point x="144" y="-490"/>
      <point x="198" y="-468"/>
      <point x="242" y="-358" type="curve" smooth="yes"/>
      <point x="698" y="776" type="line" smooth="yes"/>
      <point x="711" y="809"/>
      <point x="727" y="829"/>
      <point x="795" y="825" type="curve" smooth="yes"/>
      <point x="801" y="825"/>
      <point x="802" y="824"/>
      <point x="804" y="834" type="curve" smooth="yes"/>
      <point x="805" y="840"/>
      <point x="798" y="850"/>
      <point x="792" y="850" type="curve" smooth="yes"/>
      <point x="539" y="850" type="line" smooth="yes"/>
      <point x="527.0" y="850.0"/>
      <point x="520" y="845"/>
      <point x="522" y="841" type="curve" smooth="yes"/>
      <point x="524" y="836"/>
      <point x="529" y="838"/>
      <point x="546" y="839" type="curve" smooth="yes"/>
      <point x="618" y="842" type="line" smooth="yes"/>
      <point x="668" y="844"/>
      <point x="676" y="785"/>
      <point x="658" y="738" type="curve" smooth="yes"/>
      <point x="388" y="43" type="line"/>
      <point x="380" y="23" type="line"/>
    </contour>
  </outline>
</glyph>
<glyph name="z" format="2">
  <advance width="746"/>
  <unicode hex="007A"/>
  <anchor x="414.0" y="988.0" name="center"/>
  <outline>
    <contour>
      <point x="668.0" y="812.0" type="line" smooth="yes"/>
      <point x="684.0" y="838.0"/>
      <point x="682.0" y="844.0"/>
      <point x="682.0" y="842.0" type="curve" smooth="yes"/>
      <point x="682.0" y="844.0"/>
      <point x="680.0" y="850.0"/>
      <point x="674.0" y="850.0" type="curve" smooth="yes"/>
      <point x="182.0" y="850.0" type="line" smooth="yes"/>
      <point x="170.0" y="850.0"/>
      <point x="162.0" y="868.0"/>
      <point x="152.0" y="868.0" type="curve" smooth="yes"/>
      <point x="146.0" y="868.0"/>
      <point x="142" y="860"/>
      <point x="141.0" y="856.0" type="curve" smooth="yes"/>
      <point x="84.0" y="650.0" type="line" smooth="yes"/>
      <point x="82" y="644"/>
      <point x="85" y="641"/>
      <point x="88.0" y="641.0" type="curve" smooth="yes"/>
      <point x="94.0" y="641.0"/>
      <point x="94" y="649"/>
      <point x="98.0" y="656.0" type="curve" smooth="yes"/>
      <point x="138.0" y="732.0" type="line" smooth="yes"/>
      <point x="172.0" y="806.0"/>
      <point x="210.0" y="844.0"/>
      <point x="252.0" y="844.0" type="curve" smooth="yes"/>
      <point x="622.0" y="844.0" type="line"/>
      <point x="604.0" y="824.0" type="line"/>
      <point x="86.0" y="40.0" type="line" smooth="yes"/>
      <point x="66.0" y="12.0"/>
      <point x="72.0" y="6.0"/>
      <point x="72.0" y="8.0" type="curve" smooth="yes"/>
      <point x="72.0" y="2.0"/>
      <point x="70.0" y="0.0"/>
      <point x="90.0" y="0.0" type="curve" smooth="yes"/>
      <point x="518.0" y="0.0" type="line" smooth="yes"/>
      <point x="572.0" y="0.0"/>
      <point x="594.0" y="-20.0"/>
      <point x="620.0" y="-20.0" type="curve" smooth="yes"/>
      <point x="626.0" y="-20.0"/>
      <point x="622" y="-14"/>
      <point x="626.0" y="0.0" type="curve" smooth="yes"/>
      <point x="689.0" y="209.0" type="line" smooth="yes"/>
      <point x="691.0" y="213.0"/>
      <point x="692" y="219"/>
      <point x="689.0" y="220.0" type="curve" smooth="yes"/>
      <point x="686" y="221"/>
      <point x="684" y="220"/>
      <point x="682.0" y="216.0" type="curve" smooth="yes"/>
      <point x="640.0" y="138.0" type="line" smooth="yes"/>
      <point x="598.0" y="52.0"/>
      <point x="568.0" y="8.0"/>
      <point x="484.0" y="8.0" type="curve" smooth="yes"/>
      <point x="148.0" y="8.0" type="line"/>
      <point x="156.0" y="30.0" type="line"/>
    </contour>
  </outline>
</glyph>
<glyph name="m.alt" format="2">
  <advance width="1456"/>
  <outline>
    <contour>
      <point x="210.0" y="852.0" type="line" smooth="yes"/>
      <point x="210.0" y="856.0"/>
      <point x="208.0" y="860.0"/>
      <point x="204.0" y="860.0" type="curve" smooth="yes"/>
      <point x="202.75" y="860.0"/>
      <point x="200.0" y="860.0"/>
      <point x="194.0" y="858.0" type="curve" smooth="yes"/>
      <point x="46.0" y="816.0" type="line" smooth="yes"/>
      <point x="42.0" y="814.0"/>
      <point x="40.0" y="814.0"/>
      <point x="40.0" y="810.0" type="curve" smooth="yes"/>
      <point x="40.0" y="808.0"/>
      <point x="42.0" y="806.0"/>
      <point x="44.0" y="806.0" type="curve" smooth="yes"/>
      <point x="148.0" y="806.0" type="line" smooth="yes"/>
      <point x="154.0" y="806.0"/>
      <point x="156.0" y="802.0"/>
      <point x="156.0" y="798.0" type="curve" smooth="yes"/>
      <point x="156.0" y="40.0" type="line" smooth="yes"/>
      <point x="156.0" y="30.0"/>
      <point x="148.0" y="22.0"/>
      <point x="132.0" y="20.0" type="curve" smooth="yes"/>
      <point x="46.0" y="8.0" type="line" smooth="yes"/>
      <point x="41.64139167017315" y="7.391822093512532"/>
      <point x="40.0" y="5.0"/>
      <point x="40.0" y="4.0" type="curve" smooth="yes"/>
      <point x="40.0" y="2.0"/>
      <point x="42.0" y="0.0"/>
      <point x="44.0" y="0.0" type="curve" smooth="yes"/>
      <point x="316.0" y="0.0" type="line" smooth="yes"/>
      <point x="320.0" y="0.0"/>
      <point x="322.0" y="2.0"/>
      <point x="322.0" y="4.0" type="curve" smooth="yes"/>
      <point x="322.0" y="8.0"/>
      <point x="320.0" y="10.0"/>
      <point x="314.0" y="10.0" type="curve" smooth="yes"/>
      <point x="234.0" y="20.0" type="line" smooth="yes"/>
      <point x="218.0" y="22.0"/>
      <point x="210.0" y="30.0"/>
      <point x="210.0" y="42.0" type="curve" smooth="yes"/>
    </contour>
    <contour>
      <point x="202.0" y="698.0" type="line" smooth="yes"/>
      <point x="232.0" y="726.0" type="line" smooth="yes"/>
      <point x="324.4571997799901" y="812.2933864613241"/>
      <point x="405.3650793650794" y="844.0"/>
      <point x="486.0" y="844.0" type="curve" smooth="yes"/>
      <point x="616.8318584070796" y="844.0"/>
      <point x="710.0" y="768.0"/>
      <point x="710.0" y="596.0" type="curve" smooth="yes"/>
      <point x="710.0" y="56.0" type="line" smooth="yes"/>
      <point x="710.0" y="40.0"/>
      <point x="704.0" y="24.0"/>
      <point x="678.0" y="20.0" type="curve" smooth="yes"/>
      <point x="594.0" y="10.0" type="line" smooth="yes"/>
      <point x="588.0" y="10.0"/>
      <point x="584.0" y="8.0"/>
      <point x="584.0" y="4.0" type="curve" smooth="yes"/>
      <point x="584.0" y="2.0"/>
      <point x="588.0" y="0.0"/>
      <point x="592.0" y="0.0" type="curve" smooth="yes"/>
      <point x="868.0" y="0.0" type="line" smooth="yes"/>
      <point x="872.0" y="0.0"/>
      <point x="874.0" y="2.0"/>
      <point x="874.0" y="4.0" type="curve" smooth="yes"/>
      <point x="874.0" y="6.0"/>
      <point x="872.0" y="8.0"/>
      <point x="868.0" y="8.0" type="curve" smooth="yes"/>
      <point x="804.0" y="16.0" type="line" smooth="yes"/>
      <point x="778.0" y="20.0"/>
      <point x="764.0" y="34.0"/>
      <point x="764.0" y="56.0" type="curve" smooth="yes"/>
      <point x="764.0" y="600.0" type="line" smooth="yes"/>
      <point x="764.0" y="780.0"/>
      <point x="656.8571428571429" y="870.0"/>
      <point x="514.0" y="870.0" type="curve" smooth="yes"/>
      <point x="425.38028169014086" y="870.0"/>
      <point x="350.5261975841222" y="844.3577844118474"/>
      <point x="228.0" y="730.0" type="curve" smooth="yes"/>
      <point x="198.0" y="702.0" type="line"/>
    </contour>
    <contour>
      <point x="736.0" y="698.0" type="line" smooth="yes"/>
      <point x="766.0" y="726.0" type="line" smooth="yes"/>
      <point x="858.0" y="812.0"/>
      <point x="940.0" y="844.0"/>
      <point x="1020.0" y="844.0" type="curve" smooth="yes"/>
      <point x="1150.0" y="844.0"/>
      <point x="1244.0" y="768.0"/>
      <point x="1244.0" y="596.0" type="curve" smooth="yes"/>
      <point x="1244.0" y="56.0" type="line" smooth="yes"/>
      <point x="1244.0" y="40.0"/>
      <point x="1238.0" y="24.0"/>
      <point x="1212.0" y="20.0" type="curve" smooth="yes"/>
      <point x="1128.0" y="10.0" type="line" smooth="yes"/>
      <point x="1122.0" y="10.0"/>
      <point x="1118.0" y="8.0"/>
      <point x="1118.0" y="4.0" type="curve" smooth="yes"/>
      <point x="1118.0" y="2.0"/>
      <point x="1122.0" y="0.0"/>
      <point x="1126.0" y="0.0" type="curve" smooth="yes"/>
      <point x="1402.0" y="0.0" type="line" smooth="yes"/>
      <point x="1406.0" y="0.0"/>
      <point x="1408.0" y="2.0"/>
      <point x="1408.0" y="4.0" type="curve" smooth="yes"/>
      <point x="1408.0" y="6.0"/>
      <point x="1406.0" y="8.0"/>
      <point x="1402.0" y="8.0" type="curve" smooth="yes"/>
      <point x="1338.0" y="16.0" type="line" smooth="yes"/>
      <point x="1312.0" y="20.0"/>
      <point x="1298.0" y="34.0"/>
      <point x="1298.0" y="56.0" type="curve" smooth="yes"/>
      <point x="1298.0" y="600.0" type="line" smooth="yes"/>
      <point x="1298.0" y="780.0"/>
      <point x="1190.0" y="870.0"/>
      <point x="1048.0" y="870.0" type="curve" smooth="yes"/>
      <point x="960.0" y="870.0"/>
      <point x="884.0" y="844.0"/>
      <point x="762.0" y="730.0" type="curve" smooth="yes"/>
      <point x="732.0" y="702.0" type="line"/>
    </contour>
  </outline>
</glyph>
